<svg width="1920" height="1024" viewBox="0 0 1920 1024" fill="none" xmlns="http://www.w3.org/2000/svg">
<g clip-path="url(#clip0_158_1721)">
<rect width="1920" height="1024" fill="#6200EE"/>
<path d="M-286.809 518.501C-280.977 517.916 -273.425 517.962 -266.576 518.465C-259.705 518.969 -253.625 519.928 -250.693 521.135C-244.581 523.651 -241.16 525.285 -235.582 530.697C-229.966 536.146 -222.191 545.4 -207.409 563.176C-177.254 599.44 -158.015 622.536 -148.705 633.646C-144.783 638.325 -129.238 656.951 -114.15 675.038C-99.0608 693.129 -83.2939 712.035 -79.1055 717.047C-74.9185 722.057 -39.0771 764.976 0.523438 812.437C20.2714 836.103 38.3813 857.625 51.6699 873.257C58.314 881.072 63.7537 887.417 67.5908 891.821C69.5089 894.023 71.0288 895.742 72.0986 896.918C72.633 897.505 73.0587 897.962 73.3672 898.275C73.5207 898.432 73.6503 898.559 73.7529 898.65C73.8036 898.696 73.855 898.739 73.9033 898.774C73.9292 898.793 74.0272 898.867 74.1543 898.896L74.209 898.909H74.2656C74.7645 898.909 75.3742 898.687 75.9336 898.389C76.5085 898.082 77.1011 897.658 77.5742 897.182L77.5752 897.181C77.87 896.881 78.0453 896.364 78.1846 895.608C78.3297 894.821 78.4528 893.656 78.5596 891.941C78.7734 888.507 78.9243 882.796 79.0312 873.318C79.2452 854.358 79.2822 820.282 79.2822 759.1C79.2822 713.227 79.2006 679.07 79.0312 656.197C78.9466 644.761 78.84 636.144 78.7109 630.292C78.6464 627.367 78.5762 625.129 78.5 623.575C78.462 622.799 78.4227 622.187 78.3809 621.744C78.36 621.523 78.3371 621.338 78.3135 621.191C78.2931 621.065 78.2642 620.91 78.208 620.791L78.2031 620.781L78.1973 620.771L78.0635 620.541C77.7296 620.012 77.2503 619.549 76.7295 619.206C76.1384 618.817 75.4446 618.548 74.7881 618.547H74.7871C74.6331 618.547 74.4841 618.599 74.375 618.644C74.253 618.694 74.1159 618.764 73.9678 618.849C73.6704 619.018 73.2905 619.268 72.8291 619.594C71.9043 620.246 70.6177 621.231 68.9463 622.566C65.6011 625.239 60.6902 629.335 54.0039 635.034C40.6297 646.435 20.1355 664.263 -9.18262 689.977C-19.8344 699.319 -25.1694 703.991 -28.4102 706.335C-30.0255 707.503 -31.0832 708.064 -31.9902 708.343C-32.893 708.62 -33.6809 708.629 -34.8174 708.629C-36.3789 708.628 -37.4589 708.46 -38.4824 707.974C-39.5185 707.481 -40.5401 706.645 -41.9473 705.225C-43.4492 703.709 -44.2476 702.746 -44.6533 701.795C-45.0495 700.866 -45.0928 699.895 -44.9326 698.299C-44.9037 698.012 -44.7362 697.488 -44.332 696.623C-43.9354 695.774 -43.3342 694.644 -42.4814 693.165C-40.7762 690.207 -38.085 685.884 -34.0723 679.675C-26.048 667.259 -12.7546 647.331 8.47559 615.772C23.2378 593.829 37.0298 573.585 47.4512 558.509C52.6619 550.971 57.0292 544.726 60.2539 540.208C61.8664 537.949 63.1918 536.122 64.1934 534.783C65.2059 533.429 65.8634 532.606 66.1523 532.32C71.4108 527.116 80.9449 521.682 88.3086 519.702C91.7698 518.772 96.9933 518.331 102.205 518.376C107.418 518.421 112.551 518.953 115.832 519.936C133.749 525.301 147.744 540.24 151.873 558.306L152.062 559.168C152.12 559.447 152.183 560.093 152.246 561.123C152.308 562.14 152.368 563.499 152.426 565.178C152.542 568.536 152.651 573.164 152.751 578.884C152.951 590.323 153.119 606.117 153.253 624.814C153.522 662.209 153.658 711.214 153.662 760.217C153.666 809.22 153.537 858.22 153.274 895.603C153.143 914.294 152.978 930.08 152.779 941.51C152.68 947.225 152.573 951.849 152.457 955.201C152.399 956.878 152.339 958.234 152.277 959.248C152.215 960.276 152.151 960.918 152.094 961.193C147.917 981.077 131.182 997.468 111.368 1001.09C104.296 1002.39 96.19 1002.55 88.5801 1001.75C80.9648 1000.94 73.8858 999.167 68.8545 996.606C66.2159 995.264 64.3996 994.403 62.2461 992.804C60.09 991.202 57.585 988.85 53.6221 984.522C45.6927 975.864 32.0073 959.387 3.72363 925.427C-21.5291 895.105 -78.8921 826.354 -98.8848 802.446C-104.47 795.767 -120.993 775.952 -135.604 758.416C-150.213 740.881 -174.541 711.727 -189.663 693.633C-204.783 675.543 -224.346 652.081 -233.141 641.501C-237.541 636.208 -241.763 631.355 -245.02 627.801C-246.647 626.025 -248.038 624.568 -249.091 623.542C-249.616 623.03 -250.065 622.618 -250.42 622.326C-250.597 622.181 -250.759 622.058 -250.9 621.967C-250.994 621.906 -251.111 621.837 -251.237 621.794L-251.365 621.761C-251.663 621.709 -251.929 621.637 -252.226 621.567C-252.504 621.502 -252.814 621.439 -253.12 621.444C-253.441 621.45 -253.768 621.53 -254.072 621.755C-254.367 621.973 -254.6 622.297 -254.794 622.72C-255.175 623.551 -255.464 624.902 -255.697 627.028C-255.932 629.169 -256.115 632.148 -256.258 636.271C-256.829 652.757 -256.768 687.724 -256.768 761.184C-256.768 813.706 -256.698 847.983 -256.514 869.248C-256.421 879.88 -256.3 887.263 -256.144 892.049C-256.066 894.441 -255.979 896.191 -255.882 897.376C-255.833 897.967 -255.782 898.427 -255.726 898.761C-255.698 898.927 -255.667 899.073 -255.631 899.193C-255.602 899.288 -255.546 899.454 -255.425 899.579L-255.422 899.582C-254.866 900.143 -254.273 900.55 -253.591 900.733C-252.904 900.919 -252.179 900.863 -251.392 900.593C-249.852 900.064 -247.963 898.674 -245.387 896.399C-232.921 885.397 -209.202 864.838 -188.298 846.839C-177.846 837.84 -168.098 829.481 -160.814 823.276C-157.173 820.174 -154.147 817.611 -151.958 815.776C-150.863 814.859 -149.978 814.125 -149.33 813.597C-148.67 813.058 -148.285 812.757 -148.165 812.681C-146.3 811.501 -144.59 810.943 -142.884 810.956C-141.175 810.969 -139.414 811.555 -137.45 812.763C-135.636 813.882 -134.193 815.849 -133.394 818.028C-132.594 820.21 -132.466 822.53 -133.183 824.344C-133.236 824.476 -133.444 824.853 -133.831 825.496C-134.208 826.122 -134.731 826.963 -135.385 827.994C-136.692 830.056 -138.518 832.873 -140.728 836.241C-145.148 842.979 -151.105 851.921 -157.533 861.442C-170.405 880.508 -193.084 914.217 -207.93 936.35C-224.608 961.215 -232.991 973.704 -238.278 980.74C-240.919 984.255 -242.775 986.392 -244.495 988.024C-246.214 989.656 -247.809 990.796 -249.955 992.316C-259.251 998.904 -268.083 1001.64 -279.844 1001.59C-302.462 1001.49 -321.435 987.4 -328.296 965.584L-330.5 958.567V559.911L-328.208 553.533C-323.307 539.841 -314.357 529.628 -301.637 523.22C-295.671 520.214 -291.89 519.011 -286.809 518.501Z" stroke="#4D00BB"/>
<path d="M247.344 680.484C253.175 679.899 260.727 679.945 267.576 680.448C274.447 680.953 280.527 681.911 283.459 683.118C289.571 685.635 292.992 687.269 298.57 692.681C304.186 698.129 311.961 707.384 326.743 725.159C356.899 761.423 376.137 784.52 385.447 795.629C389.37 800.309 404.915 818.934 420.002 837.021C435.092 855.113 450.858 874.018 455.047 879.03C459.234 884.041 495.075 926.96 534.676 974.42C554.424 998.087 572.534 1019.61 585.822 1035.24C592.466 1043.06 597.906 1049.4 601.743 1053.8C603.661 1056.01 605.181 1057.73 606.251 1058.9C606.785 1059.49 607.211 1059.94 607.52 1060.26C607.673 1060.41 607.803 1060.54 607.905 1060.63C607.956 1060.68 608.007 1060.72 608.056 1060.76C608.082 1060.78 608.18 1060.85 608.307 1060.88L608.361 1060.89H608.418C608.917 1060.89 609.527 1060.67 610.086 1060.37C610.661 1060.07 611.253 1059.64 611.727 1059.17L611.728 1059.16C612.022 1058.86 612.198 1058.35 612.337 1057.59C612.482 1056.8 612.605 1055.64 612.712 1053.92C612.926 1050.49 613.077 1044.78 613.184 1035.3C613.397 1016.34 613.435 982.265 613.435 921.083C613.435 875.21 613.353 841.054 613.184 818.181C613.099 806.745 612.992 798.127 612.863 792.275C612.799 789.35 612.729 787.113 612.652 785.559C612.614 784.782 612.575 784.171 612.533 783.728C612.512 783.507 612.489 783.321 612.466 783.175C612.445 783.049 612.417 782.893 612.36 782.774L612.355 782.765L612.35 782.755L612.216 782.524C611.882 781.996 611.403 781.533 610.882 781.189C610.291 780.8 609.597 780.532 608.94 780.53H608.939C608.785 780.53 608.636 780.582 608.527 780.627C608.405 780.677 608.268 780.747 608.12 780.832C607.823 781.002 607.443 781.252 606.981 781.577C606.057 782.23 604.77 783.215 603.099 784.55C599.753 787.222 594.843 791.318 588.156 797.018C574.782 808.418 554.288 826.247 524.97 851.96C514.318 861.302 508.983 865.974 505.742 868.318C504.127 869.487 503.069 870.047 502.162 870.326C501.259 870.604 500.471 870.612 499.335 870.612C497.773 870.612 496.693 870.443 495.67 869.957C494.634 869.465 493.612 868.628 492.205 867.208C490.703 865.692 489.905 864.73 489.499 863.778C489.103 862.849 489.06 861.879 489.22 860.282C489.249 859.995 489.416 859.471 489.82 858.606C490.217 857.758 490.818 856.628 491.671 855.148C493.376 852.191 496.067 847.867 500.08 841.658C508.104 829.242 521.398 809.314 542.628 777.756C557.39 755.812 571.182 735.568 581.604 720.492C586.814 712.954 591.182 706.71 594.406 702.191C596.019 699.932 597.344 698.106 598.346 696.767C599.358 695.413 600.016 694.59 600.305 694.304C605.563 689.099 615.097 683.666 622.461 681.686C625.922 680.756 631.146 680.314 636.357 680.359C641.571 680.405 646.703 680.936 649.984 681.919C667.901 687.284 681.896 702.223 686.025 720.289L686.215 721.151C686.273 721.43 686.336 722.076 686.398 723.106C686.46 724.123 686.52 725.482 686.578 727.161C686.694 730.519 686.803 735.148 686.903 740.867C687.103 752.306 687.271 768.1 687.405 786.798C687.674 824.192 687.811 873.198 687.814 922.2C687.818 971.203 687.69 1020.2 687.427 1057.59C687.295 1076.28 687.13 1092.06 686.932 1103.49C686.832 1109.21 686.725 1113.83 686.609 1117.18C686.551 1118.86 686.492 1120.22 686.43 1121.23C686.367 1122.26 686.304 1122.9 686.246 1123.18C682.069 1143.06 665.335 1159.45 645.521 1163.08C638.449 1164.37 630.342 1164.54 622.732 1163.73C615.117 1162.92 608.038 1161.15 603.007 1158.59C600.368 1157.25 598.552 1156.39 596.398 1154.79C594.242 1153.19 591.737 1150.83 587.774 1146.51C579.845 1137.85 566.16 1121.37 537.876 1087.41C512.623 1057.09 455.26 988.338 435.268 964.43C429.682 957.75 413.16 937.935 398.549 920.399C383.939 902.864 359.611 873.71 344.489 855.616C329.37 837.526 309.806 814.065 301.012 803.484C296.612 798.191 292.389 793.338 289.133 789.784C287.505 788.008 286.114 786.552 285.062 785.525C284.536 785.013 284.087 784.602 283.732 784.31C283.556 784.164 283.394 784.042 283.252 783.95C283.158 783.89 283.041 783.821 282.915 783.777L282.787 783.744C282.49 783.693 282.223 783.62 281.927 783.551C281.648 783.486 281.338 783.423 281.032 783.428C280.711 783.433 280.384 783.514 280.08 783.738C279.785 783.956 279.552 784.28 279.358 784.703C278.978 785.535 278.688 786.886 278.455 789.012C278.22 791.153 278.037 794.131 277.895 798.254C277.323 814.741 277.385 849.707 277.385 923.167C277.385 975.689 277.454 1009.97 277.639 1031.23C277.731 1041.86 277.853 1049.25 278.009 1054.03C278.087 1056.42 278.174 1058.17 278.271 1059.36C278.319 1059.95 278.37 1060.41 278.427 1060.74C278.455 1060.91 278.485 1061.06 278.521 1061.18C278.55 1061.27 278.606 1061.44 278.728 1061.56L278.73 1061.57C279.286 1062.13 279.879 1062.53 280.562 1062.72C281.249 1062.9 281.973 1062.85 282.761 1062.58C284.3 1062.05 286.189 1060.66 288.766 1058.38C301.232 1047.38 324.951 1026.82 345.854 1008.82C356.306 999.823 366.054 991.464 373.338 985.26C376.98 982.158 380.005 979.594 382.194 977.76C383.289 976.842 384.175 976.108 384.822 975.58C385.482 975.042 385.867 974.741 385.987 974.664C387.852 973.484 389.562 972.927 391.269 972.939C392.977 972.952 394.738 973.538 396.702 974.746C398.517 975.865 399.96 977.833 400.759 980.012C401.559 982.193 401.687 984.513 400.97 986.327C400.917 986.459 400.708 986.837 400.321 987.479C399.945 988.105 399.422 988.946 398.768 989.978C397.46 992.04 395.635 994.856 393.425 998.225C389.005 1004.96 383.048 1013.9 376.619 1023.43C363.747 1042.49 341.068 1076.2 326.223 1098.33C309.544 1123.2 301.161 1135.69 295.874 1142.72C293.233 1146.24 291.377 1148.38 289.657 1150.01C287.938 1151.64 286.343 1152.78 284.197 1154.3C274.901 1160.89 266.069 1163.62 254.309 1163.57C231.69 1163.48 212.717 1149.38 205.856 1127.57L203.652 1120.55V721.895L205.944 715.517C210.846 701.824 219.795 691.611 232.516 685.203C238.482 682.197 242.263 680.994 247.344 680.484Z" stroke="#4D00BB"/>
<path d="M781.496 840.099C787.327 839.514 794.879 839.56 801.729 840.062C808.599 840.567 814.68 841.525 817.611 842.732C823.723 845.249 827.144 846.883 832.723 852.295C838.338 857.743 846.114 866.998 860.896 884.773C891.051 921.037 910.29 944.134 919.6 955.243C923.522 959.923 939.067 978.548 954.154 996.636C969.244 1014.73 985.011 1033.63 989.199 1038.64C993.386 1043.65 1029.23 1086.57 1068.83 1134.03C1088.58 1157.7 1106.69 1179.22 1119.97 1194.85C1126.62 1202.67 1132.06 1209.01 1135.9 1213.42C1137.81 1215.62 1139.33 1217.34 1140.4 1218.52C1140.94 1219.1 1141.36 1219.56 1141.67 1219.87C1141.83 1220.03 1141.95 1220.16 1142.06 1220.25C1142.11 1220.29 1142.16 1220.34 1142.21 1220.37C1142.23 1220.39 1142.33 1220.47 1142.46 1220.49L1142.51 1220.51H1142.57C1143.07 1220.51 1143.68 1220.28 1144.24 1219.99C1144.81 1219.68 1145.41 1219.26 1145.88 1218.78L1145.88 1218.78C1146.17 1218.48 1146.35 1217.96 1146.49 1217.21C1146.63 1216.42 1146.76 1215.25 1146.86 1213.54C1147.08 1210.11 1147.23 1204.39 1147.34 1194.92C1147.55 1175.96 1147.59 1141.88 1147.59 1080.7C1147.59 1034.82 1147.51 1000.67 1147.34 977.795C1147.25 966.359 1147.14 957.741 1147.02 951.89C1146.95 948.965 1146.88 946.727 1146.8 945.173C1146.77 944.397 1146.73 943.785 1146.69 943.342C1146.66 943.121 1146.64 942.935 1146.62 942.789C1146.6 942.663 1146.57 942.507 1146.51 942.389L1146.51 942.379L1146.5 942.369L1146.37 942.139C1146.03 941.61 1145.55 941.147 1145.03 940.804C1144.44 940.414 1143.75 940.146 1143.09 940.145H1143.09C1142.94 940.145 1142.79 940.196 1142.68 940.241C1142.56 940.292 1142.42 940.362 1142.27 940.446C1141.98 940.616 1141.6 940.866 1141.13 941.191C1140.21 941.844 1138.92 942.829 1137.25 944.164C1133.91 946.836 1128.99 950.932 1122.31 956.632C1108.93 968.032 1088.44 985.861 1059.12 1011.57C1048.47 1020.92 1043.14 1025.59 1039.89 1027.93C1038.28 1029.1 1037.22 1029.66 1036.31 1029.94C1035.41 1030.22 1034.62 1030.23 1033.49 1030.23C1031.93 1030.23 1030.85 1030.06 1029.82 1029.57C1028.79 1029.08 1027.76 1028.24 1026.36 1026.82C1024.86 1025.31 1024.06 1024.34 1023.65 1023.39C1023.26 1022.46 1023.21 1021.49 1023.37 1019.9C1023.4 1019.61 1023.57 1019.09 1023.97 1018.22C1024.37 1017.37 1024.97 1016.24 1025.82 1014.76C1027.53 1011.8 1030.22 1007.48 1034.23 1001.27C1042.26 988.856 1055.55 968.928 1076.78 937.37C1091.54 915.426 1105.33 895.182 1115.76 880.106C1120.97 872.568 1125.33 866.324 1128.56 861.806C1130.17 859.546 1131.5 857.72 1132.5 856.381C1133.51 855.027 1134.17 854.204 1134.46 853.918C1139.72 848.714 1149.25 843.28 1156.61 841.3C1160.07 840.37 1165.3 839.929 1170.51 839.974C1175.72 840.019 1180.86 840.551 1184.14 841.533C1202.05 846.898 1216.05 861.838 1220.18 879.903L1220.37 880.766C1220.42 881.045 1220.49 881.69 1220.55 882.721C1220.61 883.738 1220.67 885.096 1220.73 886.775C1220.85 890.133 1220.96 894.762 1221.06 900.481C1221.26 911.92 1221.42 927.714 1221.56 946.412C1221.83 983.807 1221.96 1032.81 1221.97 1081.81C1221.97 1130.82 1221.84 1179.82 1221.58 1217.2C1221.45 1235.89 1221.28 1251.68 1221.08 1263.11C1220.98 1268.82 1220.88 1273.45 1220.76 1276.8C1220.7 1278.48 1220.64 1279.83 1220.58 1280.85C1220.52 1281.87 1220.46 1282.52 1220.4 1282.79C1216.22 1302.67 1199.49 1319.07 1179.67 1322.69C1172.6 1323.98 1164.49 1324.15 1156.88 1323.34C1149.27 1322.54 1142.19 1320.76 1137.16 1318.2C1134.52 1316.86 1132.7 1316 1130.55 1314.4C1128.39 1312.8 1125.89 1310.45 1121.93 1306.12C1114 1297.46 1100.31 1280.98 1072.03 1247.02C1046.78 1216.7 989.413 1147.95 969.42 1124.04C963.834 1117.36 947.312 1097.55 932.701 1080.01C918.092 1062.48 893.764 1033.32 878.642 1015.23C863.522 997.141 843.959 973.679 835.164 963.099C830.764 957.805 826.542 952.953 823.285 949.398C821.658 947.622 820.267 946.166 819.214 945.14C818.688 944.627 818.24 944.216 817.885 943.924C817.708 943.778 817.546 943.656 817.404 943.564C817.31 943.504 817.193 943.435 817.067 943.392L816.939 943.358C816.642 943.307 816.376 943.234 816.079 943.165C815.8 943.1 815.491 943.037 815.185 943.042C814.863 943.047 814.536 943.128 814.232 943.353C813.938 943.57 813.704 943.895 813.511 944.317C813.13 945.149 812.841 946.5 812.607 948.626C812.373 950.767 812.19 953.746 812.047 957.868C811.475 974.355 811.537 1009.32 811.537 1082.78C811.537 1135.3 811.606 1169.58 811.791 1190.85C811.883 1201.48 812.005 1208.86 812.161 1213.65C812.239 1216.04 812.326 1217.79 812.423 1218.97C812.471 1219.56 812.523 1220.03 812.579 1220.36C812.607 1220.52 812.638 1220.67 812.674 1220.79C812.702 1220.89 812.758 1221.05 812.88 1221.18L812.883 1221.18C813.438 1221.74 814.032 1222.15 814.714 1222.33C815.401 1222.52 816.125 1222.46 816.913 1222.19C818.452 1221.66 820.341 1220.27 822.918 1218C835.384 1206.99 859.103 1186.44 880.007 1168.44C890.459 1159.44 900.206 1151.08 907.49 1144.87C911.132 1141.77 914.157 1139.21 916.347 1137.37C917.442 1136.46 918.327 1135.72 918.975 1135.19C919.635 1134.66 920.02 1134.36 920.14 1134.28C922.005 1133.1 923.715 1132.54 925.421 1132.55C927.129 1132.57 928.89 1133.15 930.854 1134.36C932.669 1135.48 934.112 1137.45 934.911 1139.63C935.711 1141.81 935.839 1144.13 935.122 1145.94C935.069 1146.07 934.861 1146.45 934.474 1147.09C934.097 1147.72 933.574 1148.56 932.92 1149.59C931.612 1151.65 929.787 1154.47 927.577 1157.84C923.157 1164.58 917.2 1173.52 910.771 1183.04C897.9 1202.11 875.221 1235.81 860.375 1257.95C843.696 1282.81 835.313 1295.3 830.026 1302.34C827.386 1305.85 825.529 1307.99 823.81 1309.62C822.09 1311.25 820.495 1312.39 818.35 1313.91C809.053 1320.5 800.222 1323.24 788.461 1323.19C765.842 1323.09 746.87 1309 740.009 1287.18L737.805 1280.17V881.509L740.097 875.131C744.998 861.438 753.948 851.225 766.668 844.817C772.634 841.811 776.415 840.608 781.496 840.099Z" stroke="#4D00BB"/>
<path d="M1315.65 1017.89C1321.48 1017.3 1329.03 1017.35 1335.88 1017.85C1342.75 1018.35 1348.83 1019.31 1351.76 1020.52C1357.88 1023.04 1361.3 1024.67 1366.88 1030.08C1372.49 1035.53 1380.27 1044.79 1395.05 1062.56C1425.2 1098.82 1444.44 1121.92 1453.75 1133.03C1457.67 1137.71 1473.22 1156.34 1488.31 1174.42C1503.4 1192.51 1519.16 1211.42 1523.35 1216.43C1527.54 1221.44 1563.38 1264.36 1602.98 1311.82C1622.73 1335.49 1640.84 1357.01 1654.13 1372.64C1660.77 1380.46 1666.21 1386.8 1670.05 1391.21C1671.97 1393.41 1673.49 1395.13 1674.56 1396.3C1675.09 1396.89 1675.52 1397.35 1675.82 1397.66C1675.98 1397.82 1676.11 1397.94 1676.21 1398.04C1676.26 1398.08 1676.31 1398.12 1676.36 1398.16C1676.39 1398.18 1676.48 1398.25 1676.61 1398.28L1676.67 1398.29H1676.72C1677.22 1398.29 1677.83 1398.07 1678.39 1397.77C1678.97 1397.47 1679.56 1397.04 1680.03 1396.57L1680.03 1396.57C1680.33 1396.27 1680.5 1395.75 1680.64 1394.99C1680.79 1394.21 1680.91 1393.04 1681.02 1391.33C1681.23 1387.89 1681.38 1382.18 1681.49 1372.7C1681.7 1353.74 1681.74 1319.67 1681.74 1258.48C1681.74 1212.61 1681.66 1178.45 1681.49 1155.58C1681.4 1144.15 1681.3 1135.53 1681.17 1129.68C1681.1 1126.75 1681.03 1124.51 1680.96 1122.96C1680.92 1122.18 1680.88 1121.57 1680.84 1121.13C1680.82 1120.91 1680.79 1120.72 1680.77 1120.58C1680.75 1120.45 1680.72 1120.29 1680.67 1120.18L1680.66 1120.17L1680.65 1120.16L1680.52 1119.93C1680.19 1119.4 1679.71 1118.93 1679.19 1118.59C1678.6 1118.2 1677.9 1117.93 1677.25 1117.93H1677.24C1677.09 1117.93 1676.94 1117.98 1676.83 1118.03C1676.71 1118.08 1676.57 1118.15 1676.42 1118.23C1676.13 1118.4 1675.75 1118.65 1675.29 1118.98C1674.36 1119.63 1673.07 1120.62 1671.4 1121.95C1668.06 1124.62 1663.15 1128.72 1656.46 1134.42C1643.09 1145.82 1622.59 1163.65 1593.27 1189.36C1582.62 1198.7 1577.29 1203.38 1574.05 1205.72C1572.43 1206.89 1571.37 1207.45 1570.47 1207.73C1569.56 1208 1568.78 1208.01 1567.64 1208.01C1566.08 1208.01 1565 1207.84 1563.97 1207.36C1562.94 1206.87 1561.92 1206.03 1560.51 1204.61C1559.01 1203.09 1558.21 1202.13 1557.8 1201.18C1557.41 1200.25 1557.36 1199.28 1557.52 1197.68C1557.55 1197.4 1557.72 1196.87 1558.12 1196.01C1558.52 1195.16 1559.12 1194.03 1559.98 1192.55C1561.68 1189.59 1564.37 1185.27 1568.38 1179.06C1576.41 1166.64 1589.7 1146.72 1610.93 1115.16C1625.69 1093.21 1639.49 1072.97 1649.91 1057.89C1655.12 1050.36 1659.49 1044.11 1662.71 1039.59C1664.32 1037.33 1665.65 1035.51 1666.65 1034.17C1667.66 1032.81 1668.32 1031.99 1668.61 1031.71C1673.87 1026.5 1683.4 1021.07 1690.77 1019.09C1694.23 1018.16 1699.45 1017.72 1704.66 1017.76C1709.88 1017.81 1715.01 1018.34 1718.29 1019.32C1736.21 1024.69 1750.2 1039.62 1754.33 1057.69L1754.52 1058.55C1754.58 1058.83 1754.64 1059.48 1754.7 1060.51C1754.77 1061.52 1754.82 1062.88 1754.88 1064.56C1755 1067.92 1755.11 1072.55 1755.21 1078.27C1755.41 1089.71 1755.58 1105.5 1755.71 1124.2C1755.98 1161.59 1756.12 1210.6 1756.12 1259.6C1756.12 1308.6 1755.99 1357.6 1755.73 1394.99C1755.6 1413.68 1755.43 1429.46 1755.24 1440.89C1755.14 1446.61 1755.03 1451.23 1754.91 1454.59C1754.86 1456.26 1754.8 1457.62 1754.73 1458.63C1754.67 1459.66 1754.61 1460.3 1754.55 1460.58C1750.37 1480.46 1733.64 1496.85 1713.83 1500.48C1706.75 1501.77 1698.65 1501.94 1691.04 1501.13C1683.42 1500.33 1676.34 1498.55 1671.31 1495.99C1668.67 1494.65 1666.86 1493.79 1664.7 1492.19C1662.55 1490.59 1660.04 1488.23 1656.08 1483.91C1648.15 1475.25 1634.46 1458.77 1606.18 1424.81C1580.93 1394.49 1523.56 1325.74 1503.57 1301.83C1497.99 1295.15 1481.46 1275.34 1466.85 1257.8C1452.24 1240.27 1427.92 1211.11 1412.79 1193.02C1397.67 1174.93 1378.11 1151.47 1369.32 1140.89C1364.92 1135.59 1360.69 1130.74 1357.44 1127.19C1355.81 1125.41 1354.42 1123.95 1353.37 1122.93C1352.84 1122.41 1352.39 1122 1352.04 1121.71C1351.86 1121.57 1351.7 1121.44 1351.56 1121.35C1351.46 1121.29 1351.35 1121.22 1351.22 1121.18L1351.09 1121.15C1350.79 1121.09 1350.53 1121.02 1350.23 1120.95C1349.95 1120.89 1349.64 1120.82 1349.34 1120.83C1349.02 1120.83 1348.69 1120.92 1348.38 1121.14C1348.09 1121.36 1347.86 1121.68 1347.66 1122.1C1347.28 1122.94 1346.99 1124.29 1346.76 1126.41C1346.52 1128.55 1346.34 1131.53 1346.2 1135.66C1345.63 1152.14 1345.69 1187.11 1345.69 1260.57C1345.69 1313.09 1345.76 1347.37 1345.94 1368.63C1346.04 1379.26 1346.16 1386.65 1346.31 1391.43C1346.39 1393.83 1346.48 1395.58 1346.58 1396.76C1346.62 1397.35 1346.68 1397.81 1346.73 1398.15C1346.76 1398.31 1346.79 1398.46 1346.83 1398.58C1346.85 1398.67 1346.91 1398.84 1347.03 1398.96L1347.04 1398.97C1347.59 1399.53 1348.18 1399.93 1348.87 1400.12C1349.55 1400.3 1350.28 1400.25 1351.07 1399.98C1352.6 1399.45 1354.49 1398.06 1357.07 1395.78C1369.54 1384.78 1393.26 1364.22 1414.16 1346.22C1424.61 1337.22 1434.36 1328.87 1441.64 1322.66C1445.28 1319.56 1448.31 1317 1450.5 1315.16C1451.59 1314.24 1452.48 1313.51 1453.13 1312.98C1453.79 1312.44 1454.17 1312.14 1454.29 1312.07C1456.16 1310.89 1457.87 1310.33 1459.57 1310.34C1461.28 1310.35 1463.04 1310.94 1465.01 1312.15C1466.82 1313.27 1468.26 1315.23 1469.06 1317.41C1469.86 1319.59 1469.99 1321.91 1469.27 1323.73C1469.22 1323.86 1469.01 1324.24 1468.63 1324.88C1468.25 1325.51 1467.73 1326.35 1467.07 1327.38C1465.76 1329.44 1463.94 1332.26 1461.73 1335.63C1457.31 1342.36 1451.35 1351.31 1444.92 1360.83C1432.05 1379.89 1409.37 1413.6 1394.53 1435.73C1377.85 1460.6 1369.47 1473.09 1364.18 1480.12C1361.54 1483.64 1359.68 1485.78 1357.96 1487.41C1356.24 1489.04 1354.65 1490.18 1352.5 1491.7C1343.21 1498.29 1334.37 1501.02 1322.61 1500.97C1299.99 1500.88 1281.02 1486.78 1274.16 1464.97L1271.96 1457.95V1059.3L1274.25 1052.92C1279.15 1039.23 1288.1 1029.01 1300.82 1022.6C1306.79 1019.6 1310.57 1018.4 1315.65 1017.89Z" stroke="#4D00BB"/>
<path d="M-92.4277 162.926C-86.5964 162.341 -79.0446 162.387 -72.1953 162.89C-65.3246 163.394 -59.2441 164.353 -56.3125 165.56C-50.2005 168.076 -46.7794 169.71 -41.2012 175.122C-35.5853 180.571 -27.8102 189.825 -13.0283 207.601C17.1273 243.864 36.3658 266.961 45.6758 278.07C49.5983 282.75 65.143 301.375 80.2305 319.463C95.3201 337.554 111.087 356.46 115.275 361.472C119.462 366.482 155.304 409.401 194.904 456.861C214.652 480.528 232.762 502.05 246.051 517.682C252.695 525.497 258.135 531.842 261.972 536.246C263.89 538.448 265.41 540.167 266.479 541.343C267.014 541.93 267.44 542.386 267.748 542.7C267.902 542.856 268.031 542.984 268.134 543.075C268.184 543.12 268.236 543.164 268.284 543.199C268.31 543.218 268.408 543.292 268.535 543.321L268.59 543.334H268.646C269.145 543.334 269.755 543.111 270.314 542.813C270.889 542.507 271.482 542.083 271.955 541.606L271.956 541.605C272.251 541.306 272.426 540.789 272.565 540.033C272.711 539.245 272.834 538.081 272.94 536.366C273.154 532.932 273.305 527.221 273.412 517.743C273.626 498.783 273.663 464.706 273.663 403.524C273.663 357.652 273.581 323.495 273.412 300.622C273.327 289.186 273.221 280.568 273.092 274.717C273.027 271.792 272.957 269.554 272.881 268C272.843 267.224 272.804 266.612 272.762 266.169C272.741 265.948 272.718 265.763 272.694 265.616C272.674 265.49 272.645 265.334 272.589 265.216L272.584 265.206L272.578 265.196L272.444 264.966C272.11 264.437 271.631 263.974 271.11 263.631C270.519 263.241 269.825 262.973 269.169 262.972H269.168C269.014 262.972 268.865 263.023 268.756 263.068C268.634 263.119 268.497 263.189 268.349 263.273C268.051 263.443 267.671 263.693 267.21 264.019C266.285 264.671 264.999 265.656 263.327 266.991C259.982 269.664 255.071 273.759 248.385 279.459C235.011 290.86 214.516 308.688 185.198 334.401C174.546 343.743 169.211 348.416 165.971 350.76C164.355 351.928 163.298 352.489 162.391 352.768C161.488 353.045 160.7 353.054 159.563 353.054C158.002 353.053 156.922 352.885 155.898 352.398C154.862 351.906 153.841 351.069 152.434 349.649C150.932 348.134 150.133 347.171 149.728 346.22C149.331 345.291 149.288 344.32 149.448 342.724C149.477 342.437 149.645 341.913 150.049 341.048C150.445 340.199 151.047 339.069 151.899 337.59C153.605 334.632 156.296 330.308 160.309 324.1C168.333 311.684 181.626 291.756 202.856 260.197C217.619 238.253 231.411 218.009 241.832 202.934C247.043 195.396 251.41 189.151 254.635 184.633C256.247 182.373 257.573 180.547 258.574 179.208C259.587 177.854 260.244 177.031 260.533 176.745C265.792 171.541 275.326 166.107 282.689 164.127C286.151 163.197 291.374 162.756 296.586 162.801C301.799 162.846 306.932 163.378 310.213 164.36C328.13 169.726 342.125 184.665 346.254 202.73L346.443 203.593C346.501 203.872 346.564 204.518 346.627 205.548C346.689 206.565 346.748 207.923 346.807 209.603C346.923 212.96 347.032 217.589 347.132 223.309C347.332 234.747 347.499 250.542 347.634 269.239C347.902 306.634 348.039 355.639 348.043 404.642C348.047 453.645 347.918 502.645 347.655 540.027C347.524 558.719 347.359 574.505 347.16 585.935C347.061 591.65 346.954 596.273 346.838 599.626C346.78 601.303 346.72 602.659 346.658 603.673C346.596 604.701 346.532 605.343 346.475 605.618C342.298 625.502 325.563 641.893 305.749 645.518C298.677 646.811 290.571 646.977 282.961 646.172C275.346 645.366 268.267 643.592 263.235 641.031C260.597 639.689 258.78 638.828 256.627 637.229C254.471 635.627 251.966 633.275 248.003 628.947C240.074 620.289 226.388 603.812 198.104 569.852C172.852 539.53 115.489 470.779 95.4961 446.871C89.9105 440.192 73.3882 420.376 58.7773 402.841C44.1678 385.306 19.8398 356.152 4.71777 338.058C-10.4017 319.968 -29.9651 296.506 -38.7598 285.926C-43.1599 280.632 -47.382 275.78 -50.6387 272.226C-52.2663 270.449 -53.6571 268.993 -54.71 267.967C-55.2356 267.455 -55.6841 267.043 -56.0391 266.751C-56.216 266.606 -56.3777 266.483 -56.5195 266.392C-56.6134 266.331 -56.7305 266.262 -56.8564 266.219L-56.9844 266.186C-57.2818 266.134 -57.5483 266.061 -57.8447 265.992C-58.1235 265.927 -58.4333 265.864 -58.7393 265.869C-59.0603 265.875 -59.3876 265.955 -59.6914 266.18C-59.9862 266.397 -60.2195 266.722 -60.4131 267.145C-60.7939 267.976 -61.0832 269.327 -61.3164 271.453C-61.5512 273.594 -61.734 276.573 -61.877 280.695C-62.4485 297.182 -62.3867 332.148 -62.3867 405.608C-62.3867 458.131 -62.3175 492.408 -62.1328 513.673C-62.0405 524.304 -61.9187 531.688 -61.7627 536.474C-61.6847 538.865 -61.5979 540.616 -61.501 541.801C-61.4526 542.392 -61.401 542.852 -61.3447 543.186C-61.3167 543.351 -61.2862 543.498 -61.25 543.618C-61.2216 543.713 -61.1654 543.879 -61.0439 544.004L-61.041 544.007C-60.4855 544.567 -59.892 544.974 -59.21 545.158C-58.5228 545.343 -57.7986 545.288 -57.0107 545.018C-55.4713 544.489 -53.5826 543.099 -51.0059 540.824C-38.54 529.821 -14.821 509.263 6.08301 491.264C16.5347 482.264 26.2825 473.905 33.5664 467.701C37.2083 464.599 40.2334 462.036 42.4229 460.201C43.5178 459.284 44.4031 458.55 45.0508 458.021C45.7108 457.483 46.0958 457.182 46.2158 457.105C48.0807 455.926 49.7908 455.368 51.4971 455.381C53.2056 455.394 54.9664 455.979 56.9307 457.188C58.7452 458.307 60.1883 460.274 60.9873 462.453C61.7871 464.635 61.9151 466.955 61.1982 468.769C61.1451 468.901 60.9368 469.278 60.5498 469.921C60.1731 470.547 59.6501 471.388 58.9961 472.419C57.6885 474.481 55.8633 477.297 53.6533 480.666C49.2333 487.403 43.2761 496.345 36.8477 505.867C23.9758 524.933 1.29697 558.642 -13.5488 580.774C-30.2274 605.639 -38.6105 618.129 -43.8975 625.165C-46.5381 628.679 -48.3943 630.816 -50.1143 632.449C-51.8334 634.081 -53.4284 635.221 -55.5742 636.741C-64.8704 643.329 -73.7023 646.064 -85.4629 646.015C-108.081 645.917 -127.054 631.825 -133.915 610.009L-136.119 602.992V204.336L-133.827 197.958C-128.926 184.266 -119.976 174.053 -107.256 167.645C-101.29 164.638 -97.509 163.436 -92.4277 162.926Z" stroke="#4D00BB"/>
<path d="M441.725 324.91C447.556 324.325 455.108 324.371 461.957 324.874C468.828 325.378 474.908 326.337 477.84 327.544C483.952 330.061 487.373 331.694 492.951 337.106C498.567 342.555 506.342 351.809 521.124 369.585C551.28 405.849 570.518 428.946 579.828 440.055C583.751 444.735 599.295 463.36 614.383 481.447C629.472 499.539 645.239 518.444 649.428 523.456C653.615 528.466 689.456 571.386 729.057 618.846C748.805 642.513 766.914 664.034 780.203 679.666C786.847 687.482 792.287 693.826 796.124 698.23C798.042 700.432 799.562 702.151 800.632 703.327C801.166 703.915 801.592 704.371 801.9 704.685C802.054 704.841 802.184 704.968 802.286 705.06C802.337 705.105 802.388 705.148 802.437 705.184C802.462 705.203 802.56 705.277 802.688 705.306L802.742 705.318H802.799C803.298 705.318 803.907 705.096 804.467 704.798C805.042 704.492 805.634 704.068 806.107 703.591L806.108 703.59C806.403 703.29 806.579 702.773 806.718 702.018C806.863 701.23 806.986 700.065 807.093 698.351C807.307 694.917 807.458 689.205 807.564 679.728C807.778 660.767 807.815 626.691 807.815 565.509C807.815 519.636 807.734 485.479 807.564 462.606C807.48 451.171 807.373 442.553 807.244 436.701C807.18 433.776 807.109 431.538 807.033 429.984C806.995 429.208 806.956 428.596 806.914 428.153C806.893 427.932 806.87 427.747 806.847 427.601C806.826 427.474 806.797 427.319 806.741 427.2L806.736 427.19L806.73 427.181L806.597 426.95C806.263 426.421 805.784 425.958 805.263 425.615C804.672 425.226 803.978 424.958 803.321 424.956H803.32C803.166 424.956 803.017 425.008 802.908 425.053C802.786 425.103 802.649 425.173 802.501 425.258C802.204 425.428 801.824 425.677 801.362 426.003C800.437 426.656 799.151 427.64 797.479 428.976C794.134 431.648 789.223 435.744 782.537 441.443C769.163 452.844 748.669 470.673 719.351 496.386C708.699 505.728 703.364 510.4 700.123 512.744C698.508 513.912 697.45 514.473 696.543 514.752C695.64 515.029 694.852 515.038 693.716 515.038C692.154 515.038 691.074 514.869 690.051 514.383C689.015 513.891 687.993 513.054 686.586 511.634C685.084 510.118 684.286 509.155 683.88 508.204C683.484 507.275 683.44 506.305 683.601 504.708C683.629 504.421 683.797 503.897 684.201 503.032C684.598 502.184 685.199 501.053 686.052 499.574C687.757 496.616 690.448 492.293 694.461 486.084C702.485 473.668 715.779 453.74 737.009 422.182C751.771 400.238 765.563 379.994 775.984 364.918C781.195 357.38 785.562 351.135 788.787 346.617C790.4 344.358 791.725 342.532 792.727 341.192C793.739 339.839 794.397 339.016 794.686 338.729C799.944 333.525 809.478 328.092 816.842 326.111C820.303 325.181 825.527 324.74 830.738 324.785C835.952 324.83 841.084 325.362 844.365 326.345C862.282 331.71 876.277 346.649 880.406 364.715L880.596 365.577C880.653 365.856 880.717 366.502 880.779 367.532C880.841 368.549 880.901 369.908 880.959 371.587C881.075 374.945 881.184 379.573 881.284 385.293C881.484 396.732 881.652 412.526 881.786 431.224C882.055 468.618 882.191 517.623 882.195 566.626C882.199 615.629 882.07 664.629 881.808 702.012C881.676 720.703 881.511 736.489 881.312 747.919C881.213 753.634 881.106 758.258 880.99 761.61C880.932 763.287 880.872 764.643 880.811 765.657C880.748 766.685 880.684 767.327 880.627 767.603C876.45 787.486 859.716 803.877 839.901 807.502C832.83 808.796 824.723 808.962 817.113 808.156C809.498 807.35 802.419 805.576 797.388 803.016C794.749 801.673 792.933 800.813 790.779 799.213C788.623 797.611 786.118 795.259 782.155 790.932C774.226 782.273 760.541 765.796 732.257 731.836C707.004 701.514 649.641 632.763 629.648 608.855C624.063 602.176 607.541 582.361 592.93 564.825C578.32 547.29 553.992 518.136 538.87 500.042C523.751 481.952 504.187 458.49 495.393 447.91C490.992 442.617 486.77 437.764 483.514 434.21C481.886 432.434 480.495 430.977 479.442 429.951C478.917 429.439 478.468 429.027 478.113 428.735C477.936 428.59 477.775 428.468 477.633 428.376C477.539 428.315 477.422 428.246 477.296 428.203L477.168 428.17C476.871 428.118 476.604 428.046 476.308 427.977C476.029 427.911 475.719 427.848 475.413 427.854C475.092 427.859 474.765 427.94 474.461 428.164C474.166 428.382 473.933 428.706 473.739 429.129C473.358 429.96 473.069 431.312 472.836 433.438C472.601 435.578 472.418 438.557 472.275 442.68C471.704 459.166 471.766 494.133 471.766 567.593C471.766 620.115 471.835 654.392 472.02 675.657C472.112 686.289 472.234 693.672 472.39 698.458C472.468 700.85 472.554 702.6 472.651 703.785C472.7 704.376 472.751 704.837 472.808 705.17C472.836 705.336 472.866 705.482 472.902 705.603C472.931 705.697 472.987 705.864 473.108 705.988L473.111 705.991C473.667 706.552 474.26 706.959 474.942 707.143C475.63 707.328 476.354 707.273 477.142 707.002C478.681 706.473 480.57 705.083 483.146 702.809C495.612 691.806 519.331 671.247 540.235 653.248C550.687 644.249 560.435 635.89 567.719 629.686C571.361 626.583 574.386 624.02 576.575 622.186C577.67 621.268 578.555 620.534 579.203 620.006C579.863 619.468 580.248 619.167 580.368 619.09C582.233 617.91 583.943 617.352 585.649 617.365C587.358 617.378 589.119 617.964 591.083 619.172C592.898 620.291 594.341 622.258 595.14 624.438C595.939 626.619 596.067 628.939 595.351 630.753C595.297 630.885 595.089 631.263 594.702 631.905C594.325 632.531 593.802 633.372 593.148 634.403C591.841 636.465 590.016 639.282 587.806 642.65C583.386 649.388 577.428 658.33 571 667.852C558.128 686.917 535.449 720.626 520.604 742.759C503.925 767.624 495.542 780.113 490.255 787.149C487.614 790.664 485.758 792.801 484.038 794.434C482.319 796.066 480.724 797.205 478.578 798.726C469.282 805.313 460.45 808.048 448.689 807.999C426.071 807.901 407.098 793.809 400.237 771.993L398.033 764.977V366.32L400.325 359.942C405.226 346.25 414.176 336.037 426.896 329.629C432.863 326.623 436.643 325.42 441.725 324.91Z" stroke="#4D00BB"/>
<path d="M975.877 484.523C981.708 483.939 989.26 483.985 996.109 484.487C1002.98 484.992 1009.06 485.95 1011.99 487.157C1018.1 489.674 1021.53 491.308 1027.1 496.72C1032.72 502.168 1040.49 511.423 1055.28 529.198C1085.43 565.462 1104.67 588.559 1113.98 599.668C1117.9 604.348 1133.45 622.973 1148.54 641.061C1163.62 659.152 1179.39 678.057 1183.58 683.069C1187.77 688.08 1223.61 730.999 1263.21 778.459C1282.96 802.126 1301.07 823.648 1314.36 839.279C1321 847.095 1326.44 853.44 1330.28 857.844C1332.19 860.045 1333.71 861.764 1334.78 862.94C1335.32 863.528 1335.74 863.984 1336.05 864.298C1336.21 864.454 1336.34 864.581 1336.44 864.673C1336.49 864.718 1336.54 864.761 1336.59 864.797C1336.61 864.816 1336.71 864.89 1336.84 864.919L1336.89 864.932H1336.95C1337.45 864.932 1338.06 864.709 1338.62 864.411C1339.19 864.105 1339.79 863.681 1340.26 863.204L1340.26 863.203C1340.56 862.904 1340.73 862.386 1340.87 861.631C1341.02 860.843 1341.14 859.679 1341.25 857.964C1341.46 854.53 1341.61 848.819 1341.72 839.341C1341.93 820.38 1341.97 786.304 1341.97 725.122C1341.97 679.249 1341.89 645.093 1341.72 622.22C1341.63 610.784 1341.53 602.166 1341.4 596.314C1341.33 593.389 1341.26 591.152 1341.19 589.598C1341.15 588.821 1341.11 588.21 1341.07 587.767C1341.05 587.546 1341.02 587.36 1341 587.214C1340.98 587.088 1340.95 586.932 1340.89 586.813L1340.89 586.804L1340.88 586.794L1340.75 586.563C1340.42 586.035 1339.94 585.572 1339.42 585.229C1338.82 584.839 1338.13 584.571 1337.47 584.569H1337.47C1337.32 584.569 1337.17 584.621 1337.06 584.666C1336.94 584.716 1336.8 584.787 1336.65 584.871C1336.36 585.041 1335.98 585.291 1335.51 585.616C1334.59 586.269 1333.3 587.254 1331.63 588.589C1328.29 591.261 1323.38 595.357 1316.69 601.057C1303.32 612.457 1282.82 630.286 1253.5 655.999C1242.85 665.341 1237.52 670.014 1234.28 672.357C1232.66 673.526 1231.6 674.086 1230.7 674.365C1229.79 674.643 1229 674.651 1227.87 674.651C1226.31 674.651 1225.23 674.482 1224.2 673.996C1223.17 673.504 1222.15 672.667 1220.74 671.247C1219.24 669.731 1218.44 668.769 1218.03 667.817C1217.64 666.888 1217.59 665.918 1217.75 664.321C1217.78 664.034 1217.95 663.51 1218.35 662.646C1218.75 661.797 1219.35 660.667 1220.2 659.188C1221.91 656.23 1224.6 651.906 1228.61 645.697C1236.64 633.281 1249.93 613.353 1271.16 581.795C1285.92 559.851 1299.72 539.607 1310.14 524.531C1315.35 516.993 1319.71 510.749 1322.94 506.23C1324.55 503.971 1325.88 502.145 1326.88 500.806C1327.89 499.452 1328.55 498.629 1328.84 498.343C1334.1 493.139 1343.63 487.705 1350.99 485.725C1354.46 484.795 1359.68 484.353 1364.89 484.398C1370.1 484.444 1375.24 484.975 1378.52 485.958C1396.43 491.323 1410.43 506.262 1414.56 524.328L1414.75 525.19C1414.81 525.469 1414.87 526.115 1414.93 527.146C1414.99 528.163 1415.05 529.521 1415.11 531.2C1415.23 534.558 1415.34 539.187 1415.44 544.906C1415.64 556.345 1415.8 572.139 1415.94 590.837C1416.21 628.232 1416.34 677.237 1416.35 726.239C1416.35 775.242 1416.22 824.242 1415.96 861.625C1415.83 880.316 1415.66 896.103 1415.46 907.532C1415.37 913.247 1415.26 917.871 1415.14 921.224C1415.08 922.9 1415.02 924.256 1414.96 925.271C1414.9 926.299 1414.84 926.941 1414.78 927.216C1410.6 947.099 1393.87 963.49 1374.05 967.115C1366.98 968.409 1358.88 968.575 1351.27 967.77C1343.65 966.964 1336.57 965.189 1331.54 962.629C1328.9 961.286 1327.09 960.426 1324.93 958.826C1322.78 957.225 1320.27 954.872 1316.31 950.545C1308.38 941.886 1294.69 925.409 1266.41 891.449C1241.16 861.128 1183.79 792.377 1163.8 768.469C1158.22 761.789 1141.69 741.974 1127.08 724.438C1112.47 706.903 1088.14 677.749 1073.02 659.655C1057.9 641.565 1038.34 618.104 1029.54 607.523C1025.14 602.23 1020.92 597.377 1017.67 593.823C1016.04 592.047 1014.65 590.591 1013.59 589.564C1013.07 589.052 1012.62 588.641 1012.27 588.349C1012.09 588.203 1011.93 588.081 1011.79 587.989C1011.69 587.929 1011.57 587.86 1011.45 587.816L1011.32 587.783C1011.02 587.732 1010.76 587.659 1010.46 587.59C1010.18 587.525 1009.87 587.462 1009.57 587.467C1009.24 587.472 1008.92 587.553 1008.61 587.777C1008.32 587.995 1008.09 588.319 1007.89 588.742C1007.51 589.574 1007.22 590.925 1006.99 593.051C1006.75 595.192 1006.57 598.17 1006.43 602.293C1005.86 618.78 1005.92 653.746 1005.92 727.206C1005.92 779.729 1005.99 814.006 1006.17 835.271C1006.26 845.902 1006.39 853.285 1006.54 858.071C1006.62 860.463 1006.71 862.214 1006.8 863.398C1006.85 863.989 1006.9 864.45 1006.96 864.783C1006.99 864.949 1007.02 865.096 1007.05 865.216C1007.08 865.31 1007.14 865.477 1007.26 865.602L1007.26 865.604C1007.82 866.165 1008.41 866.572 1009.09 866.756C1009.78 866.941 1010.51 866.886 1011.29 866.615C1012.83 866.087 1014.72 864.697 1017.3 862.422C1029.76 851.419 1053.48 830.86 1074.39 812.861C1084.84 803.862 1094.59 795.503 1101.87 789.299C1105.51 786.197 1108.54 783.634 1110.73 781.799C1111.82 780.881 1112.71 780.147 1113.36 779.619C1114.02 779.081 1114.4 778.78 1114.52 778.703C1116.39 777.523 1118.1 776.966 1119.8 776.979C1121.51 776.991 1123.27 777.577 1125.24 778.785C1127.05 779.904 1128.49 781.872 1129.29 784.051C1130.09 786.232 1130.22 788.552 1129.5 790.366C1129.45 790.498 1129.24 790.876 1128.85 791.519C1128.48 792.144 1127.95 792.985 1127.3 794.017C1125.99 796.079 1124.17 798.895 1121.96 802.264C1117.54 809.001 1111.58 817.943 1105.15 827.465C1092.28 846.531 1069.6 880.24 1054.76 902.372C1038.08 927.237 1029.69 939.726 1024.41 946.763C1021.77 950.277 1019.91 952.414 1018.19 954.047C1016.47 955.679 1014.88 956.818 1012.73 958.339C1003.43 964.927 994.602 967.661 982.842 967.612C960.223 967.514 941.25 953.422 934.39 931.606L932.186 924.59V525.934L934.478 519.556C939.379 505.863 948.329 495.65 961.049 489.242C967.015 486.236 970.796 485.033 975.877 484.523Z" stroke="#4D00BB"/>
<path d="M1510.03 662.311C1515.86 661.726 1523.41 661.772 1530.26 662.274C1537.13 662.779 1543.21 663.737 1546.14 664.944C1552.26 667.461 1555.68 669.095 1561.26 674.507C1566.87 679.955 1574.65 689.21 1589.43 706.985C1619.58 743.249 1638.82 766.346 1648.13 777.455C1652.06 782.135 1667.6 800.76 1682.69 818.848C1697.78 836.939 1713.54 855.844 1717.73 860.856C1721.92 865.867 1757.76 908.786 1797.36 956.246C1817.11 979.913 1835.22 1001.43 1848.51 1017.07C1855.15 1024.88 1860.59 1031.23 1864.43 1035.63C1866.35 1037.83 1867.87 1039.55 1868.94 1040.73C1869.47 1041.32 1869.9 1041.77 1870.21 1042.08C1870.36 1042.24 1870.49 1042.37 1870.59 1042.46C1870.64 1042.51 1870.69 1042.55 1870.74 1042.58C1870.77 1042.6 1870.87 1042.68 1870.99 1042.71L1871.05 1042.72H1871.1C1871.6 1042.72 1872.21 1042.5 1872.77 1042.2C1873.35 1041.89 1873.94 1041.47 1874.41 1040.99L1874.41 1040.99C1874.71 1040.69 1874.88 1040.17 1875.02 1039.42C1875.17 1038.63 1875.29 1037.47 1875.4 1035.75C1875.61 1032.32 1875.76 1026.61 1875.87 1017.13C1876.08 998.168 1876.12 964.091 1876.12 902.909C1876.12 857.037 1876.04 822.88 1875.87 800.007C1875.78 788.571 1875.68 779.953 1875.55 774.102C1875.48 771.177 1875.41 768.939 1875.34 767.385C1875.3 766.608 1875.26 765.997 1875.22 765.554C1875.2 765.333 1875.17 765.147 1875.15 765.001C1875.13 764.875 1875.1 764.719 1875.05 764.601L1875.04 764.591L1875.04 764.581L1874.9 764.351C1874.57 763.822 1874.09 763.359 1873.57 763.016C1872.98 762.626 1872.28 762.358 1871.63 762.356H1871.62C1871.47 762.356 1871.32 762.408 1871.21 762.453C1871.09 762.503 1870.95 762.574 1870.81 762.658C1870.51 762.828 1870.13 763.078 1869.67 763.403C1868.74 764.056 1867.46 765.041 1865.78 766.376C1862.44 769.048 1857.53 773.144 1850.84 778.844C1837.47 790.244 1816.97 808.073 1787.66 833.786C1777 843.128 1771.67 847.801 1768.43 850.145C1766.81 851.313 1765.75 851.874 1764.85 852.152C1763.94 852.43 1763.16 852.438 1762.02 852.438C1760.46 852.438 1759.38 852.269 1758.36 851.783C1757.32 851.291 1756.3 850.454 1754.89 849.034C1753.39 847.518 1752.59 846.556 1752.18 845.604C1751.79 844.675 1751.75 843.705 1751.91 842.108C1751.93 841.821 1752.1 841.297 1752.51 840.433C1752.9 839.584 1753.5 838.454 1754.36 836.975C1756.06 834.017 1758.75 829.693 1762.77 823.484C1770.79 811.068 1784.08 791.14 1805.31 759.582C1820.08 737.638 1833.87 717.394 1844.29 702.318C1849.5 694.78 1853.87 688.536 1857.09 684.018C1858.7 681.758 1860.03 679.932 1861.03 678.593C1862.04 677.239 1862.7 676.416 1862.99 676.13C1868.25 670.926 1877.78 665.492 1885.15 663.512C1888.61 662.582 1893.83 662.14 1899.04 662.186C1904.26 662.231 1909.39 662.762 1912.67 663.745C1930.59 669.11 1944.58 684.049 1948.71 702.115L1948.9 702.978C1948.96 703.257 1949.02 703.902 1949.08 704.933C1949.15 705.95 1949.21 707.308 1949.26 708.987C1949.38 712.345 1949.49 716.974 1949.59 722.693C1949.79 734.132 1949.96 749.926 1950.09 768.624C1950.36 806.019 1950.5 855.024 1950.5 904.026C1950.5 953.029 1950.38 1002.03 1950.11 1039.41C1949.98 1058.1 1949.82 1073.89 1949.62 1085.32C1949.52 1091.03 1949.41 1095.66 1949.29 1099.01C1949.24 1100.69 1949.18 1102.04 1949.12 1103.06C1949.05 1104.09 1948.99 1104.73 1948.93 1105C1944.75 1124.89 1928.02 1141.28 1908.21 1144.9C1901.13 1146.2 1893.03 1146.36 1885.42 1145.56C1877.8 1144.75 1870.72 1142.98 1865.69 1140.42C1863.05 1139.07 1861.24 1138.21 1859.08 1136.61C1856.93 1135.01 1854.42 1132.66 1850.46 1128.33C1842.53 1119.67 1828.85 1103.2 1800.56 1069.24C1775.31 1038.91 1717.95 970.164 1697.95 946.256C1692.37 939.576 1675.85 919.761 1661.23 902.226C1646.62 884.69 1622.3 855.537 1607.17 837.442C1592.06 819.352 1572.49 795.891 1563.7 785.311C1559.3 780.017 1555.08 775.164 1551.82 771.61C1550.19 769.834 1548.8 768.378 1547.75 767.352C1547.22 766.839 1546.77 766.428 1546.42 766.136C1546.24 765.99 1546.08 765.868 1545.94 765.776C1545.84 765.716 1545.73 765.647 1545.6 765.604L1545.47 765.57C1545.18 765.519 1544.91 765.446 1544.61 765.377C1544.33 765.312 1544.02 765.249 1543.72 765.254C1543.4 765.259 1543.07 765.34 1542.77 765.564C1542.47 765.782 1542.24 766.107 1542.04 766.529C1541.66 767.361 1541.37 768.712 1541.14 770.838C1540.91 772.979 1540.72 775.958 1540.58 780.08C1540.01 796.567 1540.07 831.533 1540.07 904.993C1540.07 957.516 1540.14 991.793 1540.32 1013.06C1540.42 1023.69 1540.54 1031.07 1540.69 1035.86C1540.77 1038.25 1540.86 1040 1540.96 1041.19C1541 1041.78 1541.06 1042.24 1541.11 1042.57C1541.14 1042.74 1541.17 1042.88 1541.21 1043C1541.24 1043.1 1541.29 1043.26 1541.41 1043.39L1541.42 1043.39C1541.97 1043.95 1542.57 1044.36 1543.25 1044.54C1543.93 1044.73 1544.66 1044.67 1545.45 1044.4C1546.99 1043.87 1548.87 1042.48 1551.45 1040.21C1563.92 1029.21 1587.64 1008.65 1608.54 990.648C1618.99 981.649 1628.74 973.29 1636.02 967.086C1639.67 963.984 1642.69 961.421 1644.88 959.586C1645.97 958.668 1646.86 957.935 1647.51 957.406C1648.17 956.868 1648.55 956.567 1648.67 956.49C1650.54 955.311 1652.25 954.753 1653.95 954.766C1655.66 954.779 1657.42 955.364 1659.39 956.572C1661.2 957.692 1662.65 959.659 1663.44 961.838C1664.24 964.019 1664.37 966.339 1663.66 968.153C1663.6 968.286 1663.39 968.663 1663.01 969.306C1662.63 969.931 1662.11 970.772 1661.45 971.804C1660.15 973.866 1658.32 976.682 1656.11 980.051C1651.69 986.788 1645.73 995.73 1639.3 1005.25C1626.43 1024.32 1603.75 1058.03 1588.91 1080.16C1572.23 1105.02 1563.85 1117.51 1558.56 1124.55C1555.92 1128.06 1554.06 1130.2 1552.34 1131.83C1550.62 1133.47 1549.03 1134.61 1546.88 1136.13C1537.59 1142.71 1528.75 1145.45 1516.99 1145.4C1494.38 1145.3 1475.4 1131.21 1468.54 1109.39L1466.34 1102.38V703.721L1468.63 697.343C1473.53 683.65 1482.48 673.437 1495.2 667.029C1501.17 664.023 1504.95 662.82 1510.03 662.311Z" stroke="#4D00BB"/>
<path d="M102.191 -211.499C108.023 -212.084 115.575 -212.038 122.424 -211.535C129.295 -211.031 135.375 -210.072 138.307 -208.865C144.419 -206.349 147.84 -204.715 153.418 -199.303C159.034 -193.854 166.809 -184.6 181.591 -166.824C211.746 -130.56 230.985 -107.464 240.295 -96.3545C244.217 -91.6746 259.762 -73.0495 274.85 -54.9619C289.939 -36.8706 305.706 -17.9652 309.895 -12.9531C314.081 -7.94283 349.923 34.9764 389.523 82.4365C409.271 106.103 427.381 127.625 440.67 143.257C447.314 151.072 452.754 157.417 456.591 161.821C458.509 164.023 460.029 165.742 461.099 166.918C461.633 167.505 462.059 167.962 462.367 168.275C462.521 168.432 462.65 168.559 462.753 168.65C462.804 168.696 462.855 168.739 462.903 168.774C462.929 168.793 463.027 168.867 463.154 168.896L463.209 168.909H463.266C463.765 168.909 464.374 168.687 464.934 168.389C465.509 168.082 466.101 167.658 466.574 167.182L466.575 167.181C466.87 166.881 467.045 166.364 467.185 165.608C467.33 164.821 467.453 163.656 467.56 161.941C467.773 158.507 467.924 152.796 468.031 143.318C468.245 124.358 468.282 90.2816 468.282 29.0996C468.282 -16.773 468.201 -50.9298 468.031 -73.8027C467.947 -85.2386 467.84 -93.8565 467.711 -99.708C467.646 -102.633 467.576 -104.871 467.5 -106.425C467.462 -107.201 467.423 -107.813 467.381 -108.256C467.36 -108.477 467.337 -108.662 467.313 -108.809C467.293 -108.935 467.264 -109.09 467.208 -109.209L467.203 -109.219L467.197 -109.229L467.063 -109.459C466.73 -109.988 466.25 -110.451 465.729 -110.794C465.138 -111.183 464.445 -111.452 463.788 -111.453H463.787C463.633 -111.453 463.484 -111.401 463.375 -111.356C463.253 -111.306 463.116 -111.236 462.968 -111.151C462.67 -110.982 462.29 -110.732 461.829 -110.406C460.904 -109.754 459.618 -108.769 457.946 -107.434C454.601 -104.761 449.69 -100.665 443.004 -94.9658C429.63 -83.5653 409.136 -65.7365 379.817 -40.0234C369.166 -30.6814 363.831 -26.0089 360.59 -23.665C358.974 -22.4967 357.917 -21.936 357.01 -21.6572C356.107 -21.3798 355.319 -21.3711 354.183 -21.3711C352.621 -21.3716 351.541 -21.5402 350.518 -22.0264C349.481 -22.5186 348.46 -23.3555 347.053 -24.7754C345.551 -26.2912 344.752 -27.2538 344.347 -28.2051C343.95 -29.1342 343.907 -30.1047 344.067 -31.7012C344.096 -31.9881 344.264 -32.5121 344.668 -33.377C345.065 -34.2256 345.666 -35.3557 346.519 -36.835C348.224 -39.7929 350.915 -44.1163 354.928 -50.3252C362.952 -62.7412 376.245 -82.6692 397.476 -114.228C412.238 -136.171 426.03 -156.415 436.451 -171.491C441.662 -179.029 446.029 -185.274 449.254 -189.792C450.866 -192.051 452.192 -193.878 453.193 -195.217C454.206 -196.571 454.863 -197.394 455.152 -197.68C460.411 -202.884 469.945 -208.318 477.309 -210.298C480.77 -211.228 485.993 -211.669 491.205 -211.624C496.418 -211.579 501.551 -211.047 504.832 -210.064C522.749 -204.699 536.744 -189.76 540.873 -171.694L541.062 -170.832C541.12 -170.553 541.183 -169.907 541.246 -168.877C541.308 -167.86 541.368 -166.501 541.426 -164.822C541.542 -161.464 541.651 -156.836 541.751 -151.116C541.951 -139.677 542.119 -123.883 542.253 -105.186C542.522 -67.7909 542.658 -18.7859 542.662 30.2168C542.666 79.2197 542.537 128.22 542.274 165.603C542.143 184.294 541.978 200.08 541.779 211.51C541.68 217.225 541.573 221.849 541.457 225.201C541.399 226.878 541.339 228.234 541.277 229.248C541.215 230.276 541.151 230.918 541.094 231.193C536.917 251.077 520.182 267.468 500.368 271.093C493.296 272.387 485.19 272.552 477.58 271.747C469.965 270.941 462.886 269.167 457.854 266.606C455.216 265.264 453.4 264.403 451.246 262.804C449.09 261.202 446.585 258.85 442.622 254.522C434.693 245.864 421.007 229.387 392.724 195.427C367.471 165.105 310.108 96.3542 290.115 72.4463C284.53 65.7667 268.007 45.9516 253.396 28.416C238.787 10.8808 214.459 -18.273 199.337 -36.3672C184.217 -54.4571 164.654 -77.9188 155.859 -88.499C151.459 -93.7924 147.237 -98.6451 143.98 -102.199C142.353 -103.975 140.962 -105.432 139.909 -106.458C139.384 -106.97 138.935 -107.382 138.58 -107.674C138.403 -107.819 138.241 -107.942 138.1 -108.033C138.006 -108.094 137.889 -108.163 137.763 -108.206L137.635 -108.239C137.337 -108.291 137.071 -108.363 136.774 -108.433C136.496 -108.498 136.186 -108.561 135.88 -108.556C135.559 -108.55 135.232 -108.47 134.928 -108.245C134.633 -108.027 134.4 -107.703 134.206 -107.28C133.825 -106.449 133.536 -105.098 133.303 -102.972C133.068 -100.831 132.885 -97.852 132.742 -93.7295C132.171 -77.2427 132.232 -42.2765 132.232 31.1836C132.232 83.706 132.302 117.983 132.486 139.248C132.579 149.88 132.7 157.263 132.856 162.049C132.934 164.441 133.021 166.191 133.118 167.376C133.167 167.967 133.218 168.427 133.274 168.761C133.302 168.927 133.333 169.073 133.369 169.193C133.398 169.288 133.454 169.454 133.575 169.579L133.578 169.582C134.134 170.143 134.727 170.55 135.409 170.733C136.096 170.919 136.821 170.863 137.608 170.593C139.148 170.064 141.037 168.674 143.613 166.399C156.079 155.397 179.798 134.838 200.702 116.839C211.154 107.84 220.902 99.4807 228.186 93.2764C231.827 90.1742 234.853 87.6111 237.042 85.7764C238.137 84.8589 239.022 84.125 239.67 83.5967C240.33 83.0584 240.715 82.7574 240.835 82.6807C242.7 81.501 244.41 80.9432 246.116 80.9561C247.825 80.969 249.586 81.5545 251.55 82.7627C253.364 83.882 254.807 85.8492 255.606 88.0283C256.406 90.2098 256.534 92.5298 255.817 94.3438C255.764 94.476 255.556 94.8535 255.169 95.4961C254.792 96.1218 254.269 96.9628 253.615 97.9941C252.308 100.056 250.482 102.873 248.272 106.241C243.852 112.979 237.895 121.921 231.467 131.442C218.595 150.508 195.916 184.217 181.07 206.35C164.392 231.215 156.009 243.704 150.722 250.74C148.081 254.255 146.225 256.392 144.505 258.024C142.786 259.656 141.191 260.796 139.045 262.316C129.749 268.904 120.917 271.639 109.156 271.59C86.5377 271.492 67.565 257.4 60.7041 235.584L58.5 228.567V-170.089L60.792 -176.467C65.6932 -190.159 74.643 -200.372 87.3633 -206.78C93.3294 -209.786 97.1102 -210.989 102.191 -211.499Z" stroke="#4D00BB"/>
<path d="M636.344 -49.5156C642.175 -50.1005 649.727 -50.0545 656.576 -49.5518C663.447 -49.0474 669.527 -48.0888 672.459 -46.8818C678.571 -44.3652 681.992 -42.7314 687.57 -37.3193C693.186 -31.8708 700.961 -22.6164 715.743 -4.84082C745.899 31.423 765.137 54.5199 774.447 65.6289C778.37 70.3088 793.915 88.9339 809.002 107.021C824.092 125.113 839.858 144.018 844.047 149.03C848.234 154.041 884.075 196.96 923.676 244.42C943.424 268.087 961.534 289.608 974.822 305.24C981.466 313.056 986.906 319.4 990.743 323.805C992.661 326.006 994.181 327.725 995.251 328.901C995.785 329.489 996.211 329.945 996.52 330.259C996.673 330.415 996.803 330.542 996.905 330.634C996.956 330.679 997.007 330.722 997.056 330.758C997.082 330.777 997.18 330.851 997.307 330.88L997.361 330.893H997.418C997.917 330.893 998.527 330.67 999.086 330.372C999.661 330.066 1000.25 329.642 1000.73 329.165L1000.73 329.164C1001.02 328.865 1001.2 328.347 1001.34 327.592C1001.48 326.804 1001.61 325.64 1001.71 323.925C1001.93 320.491 1002.08 314.78 1002.18 305.302C1002.4 286.341 1002.43 252.265 1002.43 191.083C1002.43 145.21 1002.35 111.054 1002.18 88.1807C1002.1 76.7448 1001.99 68.1269 1001.86 62.2754C1001.8 59.3504 1001.73 57.1127 1001.65 55.5586C1001.61 54.7823 1001.58 54.1707 1001.53 53.7275C1001.51 53.5066 1001.49 53.3211 1001.47 53.1748C1001.45 53.0485 1001.42 52.893 1001.36 52.7744L1001.36 52.7646L1001.35 52.7549L1001.22 52.5244C1000.88 51.9956 1000.4 51.5327 999.882 51.1895C999.291 50.8 998.597 50.5318 997.94 50.5303H997.939C997.785 50.5303 997.636 50.582 997.527 50.627C997.405 50.6773 997.268 50.7475 997.12 50.832C996.823 51.0018 996.443 51.2516 995.981 51.5771C995.057 52.2298 993.77 53.2146 992.099 54.5498C988.753 57.2221 983.843 61.318 977.156 67.0176C963.782 78.4181 943.288 96.2469 913.97 121.96C903.318 131.302 897.983 135.974 894.742 138.318C893.127 139.487 892.069 140.047 891.162 140.326C890.259 140.604 889.471 140.612 888.335 140.612C886.773 140.612 885.693 140.443 884.67 139.957C883.634 139.465 882.612 138.628 881.205 137.208C879.703 135.692 878.905 134.73 878.499 133.778C878.103 132.849 878.06 131.879 878.22 130.282C878.249 129.995 878.416 129.471 878.82 128.606C879.217 127.758 879.818 126.628 880.671 125.148C882.376 122.191 885.067 117.867 889.08 111.658C897.104 99.2422 910.398 79.3142 931.628 47.7559C946.39 25.812 960.182 5.56802 970.604 -9.50781C975.814 -17.0459 980.182 -23.2904 983.406 -27.8086C985.019 -30.0679 986.344 -31.8943 987.346 -33.2334C988.358 -34.5872 989.016 -35.4102 989.305 -35.6963C994.563 -40.9005 1004.1 -46.3343 1011.46 -48.3145C1014.92 -49.2444 1020.15 -49.6858 1025.36 -49.6406C1030.57 -49.5955 1035.7 -49.0637 1038.98 -48.0811C1056.9 -42.7158 1070.9 -27.7768 1075.03 -9.71094L1075.21 -8.84863C1075.27 -8.56957 1075.34 -7.92389 1075.4 -6.89355C1075.46 -5.87652 1075.52 -4.51796 1075.58 -2.83887C1075.69 0.518933 1075.8 5.14763 1075.9 10.8672C1076.1 22.306 1076.27 38.1002 1076.41 56.7979C1076.67 94.1925 1076.81 143.198 1076.81 192.2C1076.82 241.203 1076.69 290.203 1076.43 327.586C1076.3 346.277 1076.13 362.063 1075.93 373.493C1075.83 379.208 1075.73 383.832 1075.61 387.185C1075.55 388.861 1075.49 390.217 1075.43 391.231C1075.37 392.26 1075.3 392.901 1075.25 393.177C1071.07 413.06 1054.33 429.451 1034.52 433.076C1027.45 434.37 1019.34 434.536 1011.73 433.73C1004.12 432.925 997.038 431.15 992.007 428.59C989.368 427.247 987.552 426.387 985.398 424.787C983.242 423.186 980.737 420.833 976.774 416.506C968.845 407.847 955.16 391.37 926.876 357.41C901.623 327.088 844.26 258.338 824.268 234.43C818.682 227.75 802.16 207.935 787.549 190.399C772.939 172.864 748.611 143.71 733.489 125.616C718.37 107.526 698.806 84.0646 690.012 73.4844C685.612 68.191 681.389 63.3383 678.133 59.7842C676.505 58.0079 675.114 56.5515 674.062 55.5254C673.536 55.0131 673.087 54.6015 672.732 54.3096C672.556 54.1641 672.394 54.0418 672.252 53.9502C672.158 53.8896 672.041 53.8206 671.915 53.7773L671.787 53.7441C671.49 53.6926 671.223 53.62 670.927 53.5508C670.648 53.4857 670.338 53.4226 670.032 53.4277C669.711 53.4332 669.384 53.5139 669.08 53.7383C668.785 53.9561 668.552 54.2804 668.358 54.7031C667.978 55.5346 667.688 56.8859 667.455 59.0117C667.22 61.1527 667.037 64.1314 666.895 68.2539C666.323 84.7407 666.385 119.707 666.385 193.167C666.385 245.689 666.454 279.966 666.639 301.231C666.731 311.863 666.853 319.246 667.009 324.032C667.087 326.424 667.174 328.175 667.271 329.359C667.319 329.95 667.37 330.411 667.427 330.744C667.455 330.91 667.485 331.057 667.521 331.177C667.55 331.271 667.606 331.438 667.728 331.562L667.73 331.565C668.286 332.126 668.879 332.533 669.562 332.717C670.249 332.902 670.973 332.847 671.761 332.576C673.3 332.047 675.189 330.658 677.766 328.383C690.232 317.38 713.951 296.821 734.854 278.822C745.306 269.823 755.054 261.464 762.338 255.26C765.98 252.158 769.005 249.594 771.194 247.76C772.289 246.842 773.175 246.108 773.822 245.58C774.482 245.042 774.867 244.741 774.987 244.664C776.852 243.484 778.562 242.927 780.269 242.939C781.977 242.952 783.738 243.538 785.702 244.746C787.517 245.865 788.96 247.833 789.759 250.012C790.559 252.193 790.687 254.513 789.97 256.327C789.917 256.459 789.708 256.837 789.321 257.479C788.945 258.105 788.422 258.946 787.768 259.978C786.46 262.04 784.635 264.856 782.425 268.225C778.005 274.962 772.048 283.904 765.619 293.426C752.747 312.492 730.068 346.2 715.223 368.333C698.544 393.198 690.161 405.687 684.874 412.724C682.233 416.238 680.377 418.375 678.657 420.008C676.938 421.64 675.343 422.779 673.197 424.3C663.901 430.887 655.069 433.622 643.309 433.573C620.69 433.475 601.717 419.383 594.856 397.567L592.652 390.551V-8.10547L594.944 -14.4834C599.846 -28.1758 608.795 -38.3888 621.516 -44.7969C627.482 -47.8029 631.263 -49.0058 636.344 -49.5156Z" stroke="#4D00BB"/>
<path d="M1170.5 110.099C1176.33 109.514 1183.88 109.56 1190.73 110.062C1197.6 110.567 1203.68 111.525 1206.61 112.732C1212.72 115.249 1216.14 116.883 1221.72 122.295C1227.34 127.743 1235.11 136.998 1249.9 154.773C1280.05 191.037 1299.29 214.134 1308.6 225.243C1312.52 229.923 1328.07 248.548 1343.15 266.636C1358.24 284.727 1374.01 303.632 1378.2 308.645C1382.39 313.655 1418.23 356.574 1457.83 404.034C1477.58 427.701 1495.69 449.223 1508.97 464.854C1515.62 472.67 1521.06 479.015 1524.9 483.419C1526.81 485.621 1528.33 487.339 1529.4 488.516C1529.94 489.103 1530.36 489.559 1530.67 489.873C1530.83 490.029 1530.95 490.156 1531.06 490.248C1531.11 490.293 1531.16 490.337 1531.21 490.372C1531.23 490.391 1531.33 490.465 1531.46 490.494L1531.51 490.507H1531.57C1532.07 490.507 1532.68 490.284 1533.24 489.986C1533.81 489.68 1534.41 489.256 1534.88 488.779L1534.88 488.778C1535.17 488.479 1535.35 487.962 1535.49 487.206C1535.63 486.418 1535.76 485.254 1535.86 483.539C1536.08 480.105 1536.23 474.394 1536.34 464.916C1536.55 445.956 1536.59 411.879 1536.59 350.697C1536.59 304.825 1536.51 270.668 1536.34 247.795C1536.25 236.359 1536.14 227.741 1536.02 221.89C1535.95 218.965 1535.88 216.727 1535.8 215.173C1535.77 214.397 1535.73 213.785 1535.69 213.342C1535.66 213.121 1535.64 212.935 1535.62 212.789C1535.6 212.663 1535.57 212.507 1535.51 212.389L1535.51 212.379L1535.5 212.369L1535.37 212.139C1535.03 211.61 1534.55 211.147 1534.03 210.804C1533.44 210.414 1532.75 210.146 1532.09 210.145H1532.09C1531.94 210.145 1531.79 210.196 1531.68 210.241C1531.56 210.292 1531.42 210.362 1531.27 210.446C1530.98 210.616 1530.6 210.866 1530.13 211.191C1529.21 211.844 1527.92 212.829 1526.25 214.164C1522.91 216.836 1517.99 220.932 1511.31 226.632C1497.93 238.032 1477.44 255.861 1448.12 281.574C1437.47 290.916 1432.14 295.589 1428.89 297.933C1427.28 299.101 1426.22 299.662 1425.31 299.94C1424.41 300.218 1423.62 300.227 1422.49 300.227C1420.93 300.226 1419.85 300.057 1418.82 299.571C1417.79 299.079 1416.76 298.242 1415.36 296.822C1413.86 295.306 1413.06 294.344 1412.65 293.393C1412.26 292.463 1412.21 291.493 1412.37 289.896C1412.4 289.61 1412.57 289.086 1412.97 288.221C1413.37 287.372 1413.97 286.242 1414.82 284.763C1416.53 281.805 1419.22 277.481 1423.23 271.272C1431.26 258.856 1444.55 238.928 1465.78 207.37C1480.54 185.426 1494.33 165.182 1504.76 150.106C1509.97 142.568 1514.33 136.324 1517.56 131.806C1519.17 129.546 1520.5 127.72 1521.5 126.381C1522.51 125.027 1523.17 124.204 1523.46 123.918C1528.72 118.714 1538.25 113.28 1545.61 111.3C1549.07 110.37 1554.3 109.929 1559.51 109.974C1564.72 110.019 1569.86 110.551 1573.14 111.533C1591.05 116.898 1605.05 131.838 1609.18 149.903L1609.37 150.766C1609.42 151.045 1609.49 151.69 1609.55 152.721C1609.61 153.738 1609.67 155.096 1609.73 156.775C1609.85 160.133 1609.96 164.762 1610.06 170.481C1610.26 181.92 1610.42 197.714 1610.56 216.412C1610.83 253.807 1610.96 302.812 1610.97 351.814C1610.97 400.817 1610.84 449.817 1610.58 487.2C1610.45 505.892 1610.28 521.678 1610.08 533.107C1609.98 538.822 1609.88 543.446 1609.76 546.799C1609.7 548.475 1609.64 549.832 1609.58 550.846C1609.52 551.874 1609.46 552.516 1609.4 552.791C1605.22 572.674 1588.49 589.066 1568.67 592.69C1561.6 593.984 1553.49 594.15 1545.88 593.345C1538.27 592.539 1531.19 590.765 1526.16 588.204C1523.52 586.861 1521.7 586.001 1519.55 584.401C1517.39 582.8 1514.89 580.447 1510.93 576.12C1503 567.461 1489.31 550.984 1461.03 517.024C1435.78 486.703 1378.41 417.952 1358.42 394.044C1352.83 387.364 1336.31 367.549 1321.7 350.014C1307.09 332.478 1282.76 303.325 1267.64 285.23C1252.52 267.141 1232.96 243.679 1224.16 233.099C1219.76 227.805 1215.54 222.953 1212.29 219.398C1210.66 217.622 1209.27 216.166 1208.21 215.14C1207.69 214.627 1207.24 214.216 1206.88 213.924C1206.71 213.778 1206.55 213.656 1206.4 213.564C1206.31 213.504 1206.19 213.435 1206.07 213.392L1205.94 213.358C1205.64 213.307 1205.38 213.234 1205.08 213.165C1204.8 213.1 1204.49 213.037 1204.18 213.042C1203.86 213.047 1203.54 213.128 1203.23 213.353C1202.94 213.57 1202.7 213.895 1202.51 214.317C1202.13 215.149 1201.84 216.5 1201.61 218.626C1201.37 220.767 1201.19 223.746 1201.05 227.868C1200.48 244.355 1200.54 279.321 1200.54 352.781C1200.54 405.304 1200.61 439.581 1200.79 460.846C1200.88 471.477 1201.01 478.861 1201.16 483.646C1201.24 486.038 1201.33 487.789 1201.42 488.974C1201.47 489.564 1201.52 490.025 1201.58 490.358C1201.61 490.524 1201.64 490.671 1201.67 490.791C1201.7 490.885 1201.76 491.052 1201.88 491.177L1201.88 491.18C1202.44 491.74 1203.03 492.147 1203.71 492.331C1204.4 492.516 1205.13 492.461 1205.91 492.19C1207.45 491.662 1209.34 490.272 1211.92 487.997C1224.38 476.994 1248.1 456.436 1269.01 438.437C1279.46 429.437 1289.21 421.078 1296.49 414.874C1300.13 411.772 1303.16 409.209 1305.35 407.374C1306.44 406.457 1307.33 405.723 1307.97 405.194C1308.63 404.656 1309.02 404.355 1309.14 404.278C1311 403.099 1312.71 402.541 1314.42 402.554C1316.13 402.567 1317.89 403.152 1319.85 404.36C1321.67 405.48 1323.11 407.447 1323.91 409.626C1324.71 411.807 1324.84 414.127 1324.12 415.941C1324.07 416.074 1323.86 416.451 1323.47 417.094C1323.1 417.719 1322.57 418.56 1321.92 419.592C1320.61 421.654 1318.79 424.47 1316.58 427.839C1312.16 434.576 1306.2 443.518 1299.77 453.04C1286.9 472.106 1264.22 505.815 1249.38 527.947C1232.7 552.812 1224.31 565.302 1219.03 572.338C1216.39 575.852 1214.53 577.989 1212.81 579.622C1211.09 581.254 1209.5 582.394 1207.35 583.914C1198.05 590.502 1189.22 593.237 1177.46 593.188C1154.84 593.089 1135.87 578.997 1129.01 557.182L1126.8 550.165V151.509L1129.1 145.131C1134 131.438 1142.95 121.225 1155.67 114.817C1161.63 111.811 1165.41 110.608 1170.5 110.099Z" stroke="#4D00BB"/>
<path d="M1704.65 287.886C1710.48 287.301 1718.03 287.347 1724.88 287.85C1731.75 288.354 1737.83 289.313 1740.76 290.52C1746.88 293.036 1750.3 294.67 1755.88 300.082C1761.49 305.531 1769.27 314.785 1784.05 332.561C1814.2 368.824 1833.44 391.921 1842.75 403.03C1846.67 407.71 1862.22 426.335 1877.31 444.423C1892.4 462.514 1908.16 481.42 1912.35 486.432C1916.54 491.442 1952.38 534.361 1991.98 581.821C2011.73 605.488 2029.84 627.01 2043.13 642.642C2049.77 650.457 2055.21 656.802 2059.05 661.206C2060.97 663.408 2062.49 665.127 2063.56 666.303C2064.09 666.89 2064.52 667.346 2064.82 667.66C2064.98 667.816 2065.11 667.943 2065.21 668.035C2065.26 668.08 2065.31 668.124 2065.36 668.159C2065.39 668.178 2065.48 668.252 2065.61 668.281L2065.67 668.294H2065.72C2066.22 668.294 2066.83 668.071 2067.39 667.773C2067.97 667.467 2068.56 667.043 2069.03 666.566L2069.03 666.565C2069.33 666.266 2069.5 665.749 2069.64 664.993C2069.79 664.205 2069.91 663.041 2070.02 661.326C2070.23 657.892 2070.38 652.181 2070.49 642.703C2070.7 623.743 2070.74 589.666 2070.74 528.484C2070.74 482.612 2070.66 448.455 2070.49 425.582C2070.4 414.146 2070.3 405.528 2070.17 399.677C2070.1 396.752 2070.03 394.514 2069.96 392.96C2069.92 392.184 2069.88 391.572 2069.84 391.129C2069.82 390.908 2069.79 390.722 2069.77 390.576C2069.75 390.45 2069.72 390.294 2069.67 390.176L2069.66 390.166L2069.65 390.156L2069.52 389.926C2069.19 389.397 2068.71 388.934 2068.19 388.591C2067.6 388.201 2066.9 387.933 2066.25 387.932H2066.24C2066.09 387.932 2065.94 387.983 2065.83 388.028C2065.71 388.079 2065.57 388.149 2065.42 388.233C2065.13 388.403 2064.75 388.653 2064.29 388.979C2063.36 389.631 2062.07 390.616 2060.4 391.951C2057.06 394.623 2052.15 398.719 2045.46 404.419C2032.09 415.819 2011.59 433.648 1982.27 459.361C1971.62 468.703 1966.29 473.376 1963.05 475.72C1961.43 476.888 1960.37 477.449 1959.47 477.728C1958.56 478.005 1957.78 478.014 1956.64 478.014C1955.08 478.013 1954 477.845 1952.97 477.358C1951.94 476.866 1950.92 476.029 1949.51 474.609C1948.01 473.094 1947.21 472.131 1946.8 471.18C1946.41 470.251 1946.36 469.28 1946.52 467.684C1946.55 467.397 1946.72 466.873 1947.12 466.008C1947.52 465.159 1948.12 464.029 1948.98 462.55C1950.68 459.592 1953.37 455.268 1957.38 449.06C1965.41 436.644 1978.7 416.716 1999.93 385.157C2014.69 363.213 2028.49 342.969 2038.91 327.894C2044.12 320.355 2048.49 314.111 2051.71 309.593C2053.32 307.333 2054.65 305.507 2055.65 304.168C2056.66 302.814 2057.32 301.991 2057.61 301.705C2062.87 296.501 2072.4 291.067 2079.77 289.087C2083.23 288.157 2088.45 287.716 2093.66 287.761C2098.88 287.806 2104.01 288.338 2107.29 289.32C2125.21 294.686 2139.2 309.625 2143.33 327.69L2143.52 328.553C2143.58 328.832 2143.64 329.477 2143.7 330.508C2143.77 331.525 2143.82 332.883 2143.88 334.562C2144 337.92 2144.11 342.549 2144.21 348.269C2144.41 359.707 2144.58 375.502 2144.71 394.199C2144.98 431.594 2145.12 480.599 2145.12 529.602C2145.12 578.604 2144.99 627.605 2144.73 664.987C2144.6 683.679 2144.43 699.465 2144.24 710.895C2144.14 716.61 2144.03 721.233 2143.91 724.586C2143.86 726.263 2143.8 727.619 2143.73 728.633C2143.67 729.661 2143.61 730.303 2143.55 730.578C2139.37 750.462 2122.64 766.853 2102.83 770.478C2095.75 771.771 2087.65 771.937 2080.04 771.132C2072.42 770.326 2065.34 768.552 2060.31 765.991C2057.67 764.649 2055.86 763.788 2053.7 762.188C2051.55 760.587 2049.04 758.235 2045.08 753.907C2037.15 745.249 2023.46 728.772 1995.18 694.812C1969.93 664.49 1912.56 595.739 1892.57 571.831C1886.99 565.151 1870.46 545.336 1855.85 527.801C1841.24 510.266 1816.92 481.112 1801.79 463.018C1786.67 444.928 1767.11 421.466 1758.32 410.886C1753.92 405.592 1749.69 400.74 1746.44 397.186C1744.81 395.409 1743.42 393.953 1742.37 392.927C1741.84 392.415 1741.39 392.003 1741.04 391.711C1740.86 391.565 1740.7 391.443 1740.56 391.352C1740.46 391.291 1740.35 391.222 1740.22 391.179L1740.09 391.146C1739.79 391.094 1739.53 391.021 1739.23 390.952C1738.95 390.887 1738.64 390.824 1738.34 390.829C1738.02 390.835 1737.69 390.915 1737.38 391.14C1737.09 391.357 1736.86 391.682 1736.66 392.104C1736.28 392.936 1735.99 394.287 1735.76 396.413C1735.52 398.554 1735.34 401.533 1735.2 405.655C1734.63 422.142 1734.69 457.108 1734.69 530.568C1734.69 583.091 1734.76 617.368 1734.94 638.633C1735.04 649.264 1735.16 656.648 1735.31 661.434C1735.39 663.825 1735.48 665.576 1735.58 666.761C1735.62 667.352 1735.68 667.812 1735.73 668.146C1735.76 668.311 1735.79 668.458 1735.83 668.578C1735.85 668.673 1735.91 668.839 1736.03 668.964L1736.04 668.967C1736.59 669.527 1737.18 669.934 1737.87 670.118C1738.55 670.303 1739.28 670.248 1740.07 669.978C1741.6 669.449 1743.49 668.059 1746.07 665.784C1758.54 654.781 1782.26 634.223 1803.16 616.224C1813.61 607.224 1823.36 598.865 1830.64 592.661C1834.28 589.559 1837.31 586.996 1839.5 585.161C1840.59 584.244 1841.48 583.51 1842.13 582.981C1842.79 582.443 1843.17 582.142 1843.29 582.065C1845.16 580.886 1846.87 580.328 1848.57 580.341C1850.28 580.354 1852.04 580.939 1854.01 582.147C1855.82 583.267 1857.26 585.234 1858.06 587.413C1858.86 589.595 1858.99 591.915 1858.27 593.729C1858.22 593.861 1858.01 594.238 1857.63 594.881C1857.25 595.507 1856.73 596.348 1856.07 597.379C1854.76 599.441 1852.94 602.257 1850.73 605.626C1846.31 612.363 1840.35 621.305 1833.92 630.827C1821.05 649.893 1798.37 683.602 1783.53 705.734C1766.85 730.599 1758.47 743.089 1753.18 750.125C1750.54 753.639 1748.68 755.776 1746.96 757.409C1745.24 759.041 1743.65 760.181 1741.5 761.701C1732.21 768.289 1723.37 771.024 1711.61 770.975C1688.99 770.877 1670.02 756.785 1663.16 734.969L1660.96 727.952V329.296L1663.25 322.918C1668.15 309.226 1677.1 299.013 1689.82 292.604C1695.79 289.598 1699.57 288.396 1704.65 287.886Z" stroke="#4D00BB"/>
<g filter="url(#filter0_d_158_1721)">
<path d="M830.725 -405.09C836.556 -405.675 844.108 -405.629 850.957 -405.126C857.828 -404.622 863.908 -403.663 866.84 -402.456C872.952 -399.939 876.373 -398.306 881.951 -392.894C887.567 -387.445 895.342 -378.191 910.124 -360.415C940.28 -324.151 959.518 -301.054 968.828 -289.945C972.751 -285.265 988.295 -266.64 1003.38 -248.553C1018.47 -230.461 1034.24 -211.556 1038.43 -206.544C1042.61 -201.534 1078.46 -158.614 1118.06 -111.154C1137.8 -87.4875 1155.91 -65.9658 1169.2 -50.334C1175.85 -42.5184 1181.29 -36.1738 1185.12 -31.7695C1187.04 -29.5679 1188.56 -27.849 1189.63 -26.6729C1190.17 -26.0854 1190.59 -25.6293 1190.9 -25.3154C1191.05 -25.1593 1191.18 -25.0321 1191.29 -24.9404C1191.34 -24.8952 1191.39 -24.8519 1191.44 -24.8164C1191.46 -24.7974 1191.56 -24.7234 1191.69 -24.6943L1191.74 -24.6816H1191.8C1192.3 -24.6816 1192.91 -24.9042 1193.47 -25.2021C1194.04 -25.5084 1194.63 -25.9323 1195.11 -26.4092L1195.11 -26.4102C1195.4 -26.7096 1195.58 -27.2269 1195.72 -27.9824C1195.86 -28.7702 1195.99 -29.9346 1196.09 -31.6494C1196.31 -35.0834 1196.46 -40.7946 1196.56 -50.2725C1196.78 -69.2328 1196.82 -103.309 1196.82 -164.491C1196.82 -210.364 1196.73 -244.521 1196.56 -267.394C1196.48 -278.829 1196.37 -287.447 1196.24 -293.299C1196.18 -296.224 1196.11 -298.462 1196.03 -300.016C1196 -300.792 1195.96 -301.404 1195.91 -301.847C1195.89 -302.068 1195.87 -302.253 1195.85 -302.399C1195.83 -302.526 1195.8 -302.681 1195.74 -302.8L1195.74 -302.81L1195.73 -302.819L1195.6 -303.05C1195.26 -303.579 1194.78 -304.042 1194.26 -304.385C1193.67 -304.774 1192.98 -305.042 1192.32 -305.044H1192.32C1192.17 -305.044 1192.02 -304.992 1191.91 -304.947C1191.79 -304.897 1191.65 -304.827 1191.5 -304.742C1191.2 -304.572 1190.82 -304.323 1190.36 -303.997C1189.44 -303.344 1188.15 -302.36 1186.48 -301.024C1183.13 -298.352 1178.22 -294.256 1171.54 -288.557C1158.16 -277.156 1137.67 -259.327 1108.35 -233.614C1097.7 -224.272 1092.36 -219.6 1089.12 -217.256C1087.51 -216.088 1086.45 -215.527 1085.54 -215.248C1084.64 -214.971 1083.85 -214.962 1082.72 -214.962C1081.15 -214.962 1080.07 -215.131 1079.05 -215.617C1078.01 -216.109 1076.99 -216.946 1075.59 -218.366C1074.08 -219.882 1073.29 -220.845 1072.88 -221.796C1072.48 -222.725 1072.44 -223.695 1072.6 -225.292C1072.63 -225.579 1072.8 -226.103 1073.2 -226.968C1073.6 -227.816 1074.2 -228.947 1075.05 -230.426C1076.76 -233.384 1079.45 -237.707 1083.46 -243.916C1091.49 -256.332 1104.78 -276.26 1126.01 -307.818C1140.77 -329.762 1154.56 -350.006 1164.98 -365.082C1170.2 -372.62 1174.56 -378.865 1177.79 -383.383C1179.4 -385.642 1180.72 -387.468 1181.73 -388.808C1182.74 -390.161 1183.4 -390.984 1183.69 -391.271C1188.94 -396.475 1198.48 -401.908 1205.84 -403.889C1209.3 -404.819 1214.53 -405.26 1219.74 -405.215C1224.95 -405.17 1230.08 -404.638 1233.37 -403.655C1251.28 -398.29 1265.28 -383.351 1269.41 -365.285L1269.6 -364.423C1269.65 -364.144 1269.72 -363.498 1269.78 -362.468C1269.84 -361.451 1269.9 -360.092 1269.96 -358.413C1270.08 -355.055 1270.18 -350.427 1270.28 -344.707C1270.48 -333.268 1270.65 -317.474 1270.79 -298.776C1271.05 -261.382 1271.19 -212.377 1271.2 -163.374C1271.2 -114.371 1271.07 -65.371 1270.81 -27.9883C1270.68 -9.29686 1270.51 6.48925 1270.31 17.9189C1270.21 23.634 1270.11 28.2578 1269.99 31.6104C1269.93 33.2869 1269.87 34.643 1269.81 35.6572C1269.75 36.6853 1269.68 37.3272 1269.63 37.6025C1265.45 57.486 1248.72 73.877 1228.9 77.502C1221.83 78.7957 1213.72 78.9615 1206.11 78.1562C1198.5 77.3504 1191.42 75.5762 1186.39 73.0156C1183.75 71.673 1181.93 70.8125 1179.78 69.2129C1177.62 67.6113 1175.12 65.259 1171.16 60.9316C1163.23 52.273 1149.54 35.796 1121.26 1.83594C1096 -28.4857 1038.64 -97.2366 1018.65 -121.145C1013.06 -127.824 996.541 -147.639 981.93 -165.175C967.32 -182.71 942.992 -211.864 927.87 -229.958C912.751 -248.048 893.187 -271.51 884.393 -282.09C879.992 -287.383 875.77 -292.236 872.514 -295.79C870.886 -297.566 869.495 -299.023 868.442 -300.049C867.917 -300.561 867.468 -300.973 867.113 -301.265C866.936 -301.41 866.775 -301.532 866.633 -301.624C866.539 -301.685 866.422 -301.754 866.296 -301.797L866.168 -301.83C865.871 -301.882 865.604 -301.954 865.308 -302.023C865.029 -302.089 864.719 -302.152 864.413 -302.146C864.092 -302.141 863.765 -302.06 863.461 -301.836C863.166 -301.618 862.933 -301.294 862.739 -300.871C862.358 -300.04 862.069 -298.688 861.836 -296.562C861.601 -294.422 861.418 -291.443 861.275 -287.32C860.704 -270.834 860.766 -235.867 860.766 -162.407C860.766 -109.885 860.835 -75.6077 861.02 -54.3428C861.112 -43.7111 861.234 -36.3279 861.39 -31.542C861.468 -29.1501 861.554 -27.3997 861.651 -26.2148C861.7 -25.624 861.751 -25.1634 861.808 -24.8301C861.836 -24.6643 861.866 -24.5175 861.902 -24.3975C861.931 -24.3031 861.987 -24.1363 862.108 -24.0117L862.111 -24.0088C862.667 -23.4483 863.26 -23.0413 863.942 -22.8574C864.63 -22.6722 865.354 -22.7275 866.142 -22.998C867.681 -23.5267 869.57 -24.9165 872.146 -27.1914C884.612 -38.1942 908.331 -58.7528 929.235 -76.752C939.687 -85.7513 949.435 -94.1101 956.719 -100.314C960.361 -103.417 963.386 -105.98 965.575 -107.814C966.67 -108.732 967.555 -109.466 968.203 -109.994C968.863 -110.532 969.248 -110.833 969.368 -110.91C971.233 -112.09 972.943 -112.648 974.649 -112.635C976.358 -112.622 978.119 -112.036 980.083 -110.828C981.898 -109.709 983.341 -107.742 984.14 -105.562C984.939 -103.381 985.067 -101.061 984.351 -99.2471C984.297 -99.1149 984.089 -98.7374 983.702 -98.0947C983.325 -97.4691 982.802 -96.6281 982.148 -95.5967C980.841 -93.5346 979.016 -90.7183 976.806 -87.3496C972.386 -80.6121 966.428 -71.6703 960 -62.1484C947.128 -43.0826 924.449 -9.37376 909.604 12.7588C892.925 37.6238 884.542 50.1132 879.255 57.1494C876.614 60.6638 874.758 62.8008 873.038 64.4336C871.319 66.0656 869.724 67.2051 867.578 68.7256C858.282 75.3133 849.45 78.0482 837.689 77.999C815.071 77.9009 796.098 63.809 789.237 41.9932L787.033 34.9766V-363.68L789.325 -370.058C794.226 -383.75 803.176 -393.963 815.896 -400.371C821.863 -403.377 825.643 -404.58 830.725 -405.09Z" stroke="#4D00BB" shape-rendering="crispEdges"/>
</g>
<path d="M1364.88 -245.477C1370.71 -246.061 1378.26 -246.015 1385.11 -245.513C1391.98 -245.008 1398.06 -244.05 1400.99 -242.843C1407.1 -240.326 1410.53 -238.692 1416.1 -233.28C1421.72 -227.832 1429.49 -218.577 1444.28 -200.802C1474.43 -164.538 1493.67 -141.441 1502.98 -130.332C1506.9 -125.652 1522.45 -107.027 1537.54 -88.9395C1552.62 -70.8481 1568.39 -51.9427 1572.58 -46.9307C1576.77 -41.9204 1612.61 0.998835 1652.21 48.459C1671.96 72.1258 1690.07 93.6475 1703.36 109.279C1710 117.095 1715.44 123.44 1719.28 127.844C1721.19 130.045 1722.71 131.764 1723.78 132.94C1724.32 133.528 1724.74 133.984 1725.05 134.298C1725.21 134.454 1725.34 134.581 1725.44 134.673C1725.49 134.718 1725.54 134.761 1725.59 134.797C1725.61 134.816 1725.71 134.89 1725.84 134.919L1725.89 134.932H1725.95C1726.45 134.932 1727.06 134.709 1727.62 134.411C1728.19 134.105 1728.79 133.681 1729.26 133.204L1729.26 133.203C1729.56 132.904 1729.73 132.386 1729.87 131.631C1730.02 130.843 1730.14 129.679 1730.25 127.964C1730.46 124.53 1730.61 118.819 1730.72 109.341C1730.93 90.3805 1730.97 56.3041 1730.97 -4.87793C1730.97 -50.7505 1730.89 -84.9073 1730.72 -107.78C1730.63 -119.216 1730.53 -127.834 1730.4 -133.686C1730.33 -136.611 1730.26 -138.848 1730.19 -140.402C1730.15 -141.179 1730.11 -141.79 1730.07 -142.233C1730.05 -142.454 1730.02 -142.64 1730 -142.786C1729.98 -142.912 1729.95 -143.068 1729.89 -143.187L1729.89 -143.196L1729.88 -143.206L1729.75 -143.437C1729.42 -143.965 1728.94 -144.428 1728.42 -144.771C1727.82 -145.161 1727.13 -145.429 1726.47 -145.431H1726.47C1726.32 -145.431 1726.17 -145.379 1726.06 -145.334C1725.94 -145.284 1725.8 -145.213 1725.65 -145.129C1725.36 -144.959 1724.98 -144.709 1724.51 -144.384C1723.59 -143.731 1722.3 -142.746 1720.63 -141.411C1717.29 -138.739 1712.38 -134.643 1705.69 -128.943C1692.32 -117.543 1671.82 -99.7141 1642.5 -74.001C1631.85 -64.6589 1626.52 -59.9865 1623.28 -57.6426C1621.66 -56.4743 1620.6 -55.9135 1619.7 -55.6348C1618.79 -55.3573 1618 -55.3486 1616.87 -55.3486C1615.31 -55.3492 1614.23 -55.5177 1613.2 -56.0039C1612.17 -56.4961 1611.15 -57.333 1609.74 -58.7529C1608.24 -60.2688 1607.44 -61.2313 1607.03 -62.1826C1606.64 -63.1117 1606.59 -64.0822 1606.75 -65.6787C1606.78 -65.9657 1606.95 -66.4896 1607.35 -67.3545C1607.75 -68.2032 1608.35 -69.3333 1609.2 -70.8125C1610.91 -73.7704 1613.6 -78.0938 1617.61 -84.3027C1625.64 -96.7187 1638.93 -116.647 1660.16 -148.205C1674.92 -170.149 1688.72 -190.393 1699.14 -205.469C1704.35 -213.007 1708.71 -219.251 1711.94 -223.77C1713.55 -226.029 1714.88 -227.855 1715.88 -229.194C1716.89 -230.548 1717.55 -231.371 1717.84 -231.657C1723.1 -236.861 1732.63 -242.295 1739.99 -244.275C1743.46 -245.205 1748.68 -245.647 1753.89 -245.602C1759.1 -245.556 1764.24 -245.025 1767.52 -244.042C1785.43 -238.677 1799.43 -223.738 1803.56 -205.672L1803.75 -204.81C1803.81 -204.531 1803.87 -203.885 1803.93 -202.854C1803.99 -201.837 1804.05 -200.479 1804.11 -198.8C1804.23 -195.442 1804.34 -190.813 1804.44 -185.094C1804.64 -173.655 1804.8 -157.861 1804.94 -139.163C1805.21 -101.768 1805.34 -52.7634 1805.35 -3.76074C1805.35 45.2422 1805.22 94.2423 1804.96 131.625C1804.83 150.316 1804.66 166.103 1804.46 177.532C1804.37 183.247 1804.26 187.871 1804.14 191.224C1804.08 192.9 1804.02 194.256 1803.96 195.271C1803.9 196.299 1803.84 196.941 1803.78 197.216C1799.6 217.099 1782.87 233.49 1763.05 237.115C1755.98 238.409 1747.88 238.575 1740.27 237.77C1732.65 236.964 1725.57 235.189 1720.54 232.629C1717.9 231.286 1716.09 230.426 1713.93 228.826C1711.78 227.225 1709.27 224.872 1705.31 220.545C1697.38 211.886 1683.69 195.409 1655.41 161.449C1630.16 131.128 1572.79 62.3767 1552.8 38.4688C1547.22 31.7892 1530.69 11.9741 1516.08 -5.56152C1501.47 -23.0967 1477.14 -52.2506 1462.02 -70.3447C1446.9 -88.4346 1427.34 -111.896 1418.54 -122.477C1414.14 -127.77 1409.92 -132.623 1406.67 -136.177C1405.04 -137.953 1403.65 -139.409 1402.59 -140.436C1402.07 -140.948 1401.62 -141.359 1401.27 -141.651C1401.09 -141.797 1400.93 -141.919 1400.79 -142.011C1400.69 -142.071 1400.57 -142.14 1400.45 -142.184L1400.32 -142.217C1400.02 -142.268 1399.76 -142.341 1399.46 -142.41C1399.18 -142.475 1398.87 -142.538 1398.57 -142.533C1398.24 -142.528 1397.92 -142.447 1397.61 -142.223C1397.32 -142.005 1397.09 -141.681 1396.89 -141.258C1396.51 -140.426 1396.22 -139.075 1395.99 -136.949C1395.75 -134.808 1395.57 -131.83 1395.43 -127.707C1394.86 -111.22 1394.92 -76.254 1394.92 -2.79395C1394.92 49.7285 1394.99 84.0056 1395.17 105.271C1395.26 115.902 1395.39 123.285 1395.54 128.071C1395.62 130.463 1395.71 132.214 1395.8 133.398C1395.85 133.989 1395.9 134.45 1395.96 134.783C1395.99 134.949 1396.02 135.096 1396.05 135.216C1396.08 135.31 1396.14 135.477 1396.26 135.602L1396.26 135.604C1396.82 136.165 1397.41 136.572 1398.09 136.756C1398.78 136.941 1399.51 136.886 1400.29 136.615C1401.83 136.087 1403.72 134.697 1406.3 132.422C1418.76 121.419 1442.48 100.86 1463.39 82.8613C1473.84 73.862 1483.59 65.5031 1490.87 59.2988C1494.51 56.1967 1497.54 53.6335 1499.73 51.7988C1500.82 50.8813 1501.71 50.1475 1502.36 49.6191C1503.02 49.0808 1503.4 48.7798 1503.52 48.7031C1505.39 47.5234 1507.1 46.9657 1508.8 46.9785C1510.51 46.9914 1512.27 47.577 1514.24 48.7852C1516.05 49.9044 1517.49 51.8716 1518.29 54.0508C1519.09 56.2322 1519.22 58.5523 1518.5 60.3662C1518.45 60.4984 1518.24 60.8759 1517.85 61.5186C1517.48 62.1442 1516.95 62.9852 1516.3 64.0166C1514.99 66.0787 1513.17 68.895 1510.96 72.2637C1506.54 79.0011 1500.58 87.943 1494.15 97.4648C1481.28 116.531 1458.6 150.24 1443.76 172.372C1427.08 197.237 1418.69 209.726 1413.41 216.763C1410.77 220.277 1408.91 222.414 1407.19 224.047C1405.47 225.679 1403.88 226.818 1401.73 228.339C1392.43 234.927 1383.6 237.661 1371.84 237.612C1349.22 237.514 1330.25 223.422 1323.39 201.606L1321.19 194.59V-204.066L1323.48 -210.444C1328.38 -224.137 1337.33 -234.35 1350.05 -240.758C1356.01 -243.764 1359.8 -244.967 1364.88 -245.477Z" stroke="#4D00BB"/>
<g filter="url(#filter1_d_158_1721)">
<path d="M1899.03 -67.6895C1904.86 -68.2743 1912.41 -68.2284 1919.26 -67.7256C1926.13 -67.2212 1932.21 -66.2626 1935.14 -65.0557C1941.26 -62.539 1944.68 -60.9052 1950.26 -55.4932C1955.87 -50.0446 1963.65 -40.7902 1978.43 -23.0146C2008.58 13.2492 2027.82 36.346 2037.13 47.4551C2041.06 52.135 2056.6 70.7601 2071.69 88.8477C2086.78 106.939 2102.54 125.844 2106.73 130.856C2110.92 135.867 2146.76 178.786 2186.36 226.246C2206.11 249.913 2224.22 271.435 2237.51 287.066C2244.15 294.882 2249.59 301.227 2253.43 305.631C2255.35 307.832 2256.87 309.551 2257.94 310.728C2258.47 311.315 2258.9 311.771 2259.21 312.085C2259.36 312.241 2259.49 312.368 2259.59 312.46C2259.64 312.505 2259.69 312.549 2259.74 312.584C2259.77 312.603 2259.87 312.677 2259.99 312.706L2260.05 312.719H2260.1C2260.6 312.719 2261.21 312.496 2261.77 312.198C2262.35 311.892 2262.94 311.468 2263.41 310.991L2263.41 310.99C2263.71 310.691 2263.88 310.173 2264.02 309.418C2264.17 308.63 2264.29 307.466 2264.4 305.751C2264.61 302.317 2264.76 296.606 2264.87 287.128C2265.08 268.168 2265.12 234.091 2265.12 172.909C2265.12 127.037 2265.04 92.8798 2264.87 70.0068C2264.78 58.5709 2264.68 49.9531 2264.55 44.1016C2264.48 41.1766 2264.41 38.9388 2264.34 37.3848C2264.3 36.6084 2264.26 35.9968 2264.22 35.5537C2264.2 35.3327 2264.17 35.1473 2264.15 35.001C2264.13 34.8747 2264.1 34.7192 2264.05 34.6006L2264.04 34.5908L2264.04 34.5811L2263.9 34.3506C2263.57 33.8218 2263.09 33.3589 2262.57 33.0156C2261.98 32.6262 2261.28 32.3579 2260.63 32.3564H2260.62C2260.47 32.3564 2260.32 32.4081 2260.21 32.4531C2260.09 32.5035 2259.95 32.5736 2259.81 32.6582C2259.51 32.8279 2259.13 33.0777 2258.67 33.4033C2257.74 34.056 2256.46 35.0407 2254.78 36.376C2251.44 39.0483 2246.53 43.1442 2239.84 48.8438C2226.47 60.2443 2205.97 78.0731 2176.66 103.786C2166 113.128 2160.67 117.801 2157.43 120.145C2155.81 121.313 2154.75 121.874 2153.85 122.152C2152.94 122.43 2152.16 122.438 2151.02 122.438C2149.46 122.438 2148.38 122.269 2147.36 121.783C2146.32 121.291 2145.3 120.454 2143.89 119.034C2142.39 117.518 2141.59 116.556 2141.18 115.604C2140.79 114.675 2140.75 113.705 2140.91 112.108C2140.93 111.821 2141.1 111.297 2141.51 110.433C2141.9 109.584 2142.5 108.454 2143.36 106.975C2145.06 104.017 2147.75 99.6933 2151.77 93.4844C2159.79 81.0684 2173.08 61.1404 2194.31 29.582C2209.08 7.63822 2222.87 -12.6058 2233.29 -27.6816C2238.5 -35.2197 2242.87 -41.4643 2246.09 -45.9824C2247.7 -48.2418 2249.03 -50.0681 2250.03 -51.4072C2251.04 -52.761 2251.7 -53.5841 2251.99 -53.8701C2257.25 -59.0743 2266.78 -64.5081 2274.15 -66.4883C2277.61 -67.4182 2282.83 -67.8596 2288.04 -67.8145C2293.26 -67.7693 2298.39 -67.2375 2301.67 -66.2549C2319.59 -60.8897 2333.58 -45.9506 2337.71 -27.8848L2337.9 -27.0225C2337.96 -26.7434 2338.02 -26.0977 2338.08 -25.0674C2338.15 -24.0503 2338.21 -22.6918 2338.26 -21.0127C2338.38 -17.6549 2338.49 -13.0262 2338.59 -7.30664C2338.79 4.13218 2338.96 19.9264 2339.09 38.624C2339.36 76.0187 2339.5 125.024 2339.5 174.026C2339.5 223.029 2339.38 272.029 2339.11 309.412C2338.98 328.104 2338.82 343.89 2338.62 355.319C2338.52 361.034 2338.41 365.658 2338.29 369.011C2338.24 370.687 2338.18 372.043 2338.12 373.058C2338.05 374.086 2337.99 374.728 2337.93 375.003C2333.75 394.886 2317.02 411.277 2297.21 414.902C2290.13 416.196 2282.03 416.362 2274.42 415.557C2266.8 414.751 2259.72 412.977 2254.69 410.416C2252.05 409.073 2250.24 408.213 2248.08 406.613C2245.93 405.012 2243.42 402.659 2239.46 398.332C2231.53 389.673 2217.85 373.196 2189.56 339.236C2164.31 308.915 2106.95 240.164 2086.95 216.256C2081.37 209.576 2064.85 189.761 2050.23 172.226C2035.62 154.69 2011.3 125.537 1996.17 107.442C1981.06 89.3525 1961.49 65.8907 1952.7 55.3105C1948.3 50.0171 1944.08 45.1645 1940.82 41.6104C1939.19 39.8341 1937.8 38.3777 1936.75 37.3516C1936.22 36.8393 1935.77 36.4277 1935.42 36.1357C1935.24 35.9903 1935.08 35.868 1934.94 35.7764C1934.84 35.7158 1934.73 35.6468 1934.6 35.6035L1934.47 35.5703C1934.18 35.5187 1933.91 35.4462 1933.61 35.377C1933.33 35.3118 1933.02 35.2488 1932.72 35.2539C1932.4 35.2594 1932.07 35.3401 1931.77 35.5645C1931.47 35.7823 1931.24 36.1066 1931.04 36.5293C1930.66 37.3608 1930.37 38.7121 1930.14 40.8379C1929.91 42.9789 1929.72 45.9575 1929.58 50.0801C1929.01 66.5668 1929.07 101.533 1929.07 174.993C1929.07 227.516 1929.14 261.793 1929.32 283.058C1929.42 293.689 1929.54 301.072 1929.69 305.858C1929.77 308.25 1929.86 310.001 1929.96 311.186C1930 311.776 1930.06 312.237 1930.11 312.57C1930.14 312.736 1930.17 312.883 1930.21 313.003C1930.24 313.097 1930.29 313.264 1930.41 313.389L1930.42 313.392C1930.97 313.952 1931.57 314.359 1932.25 314.543C1932.93 314.728 1933.66 314.673 1934.45 314.402C1935.99 313.874 1937.87 312.484 1940.45 310.209C1952.92 299.206 1976.64 278.648 1997.54 260.648C2007.99 251.649 2017.74 243.29 2025.02 237.086C2028.67 233.984 2031.69 231.421 2033.88 229.586C2034.97 228.668 2035.86 227.935 2036.51 227.406C2037.17 226.868 2037.55 226.567 2037.67 226.49C2039.54 225.311 2041.25 224.753 2042.95 224.766C2044.66 224.779 2046.42 225.364 2048.39 226.572C2050.2 227.692 2051.65 229.659 2052.44 231.838C2053.24 234.019 2053.37 236.339 2052.66 238.153C2052.6 238.286 2052.39 238.663 2052.01 239.306C2051.63 239.931 2051.11 240.772 2050.45 241.804C2049.15 243.866 2047.32 246.682 2045.11 250.051C2040.69 256.788 2034.73 265.73 2028.3 275.252C2015.43 294.318 1992.75 328.027 1977.91 350.159C1961.23 375.024 1952.85 387.514 1947.56 394.55C1944.92 398.064 1943.06 400.201 1941.34 401.834C1939.62 403.466 1938.03 404.606 1935.88 406.126C1926.59 412.714 1917.75 415.449 1905.99 415.399C1883.38 415.301 1864.4 401.209 1857.54 379.394L1855.34 372.377V-26.2793L1857.63 -32.6572C1862.53 -46.3497 1871.48 -56.5626 1884.2 -62.9707C1890.17 -65.9767 1893.95 -67.1796 1899.03 -67.6895Z" stroke="#4D00BB" shape-rendering="crispEdges"/>
</g>
<g filter="url(#filter2_f_158_1721)">
<ellipse cx="960.5" cy="505" rx="426" ry="287.5" transform="rotate(90 960.5 505)" fill="#6200EE"/>
<path d="M1247.5 505C1247.5 622.55 1215.34 728.951 1163.38 805.948C1111.41 882.949 1039.67 930.5 960.5 930.5C881.325 930.5 809.587 882.949 757.621 805.948C705.657 728.951 673.5 622.55 673.5 505C673.5 387.45 705.657 281.049 757.621 204.052C809.587 127.051 881.325 79.5 960.5 79.5C1039.67 79.5 1111.41 127.051 1163.38 204.052C1215.34 281.049 1247.5 387.45 1247.5 505Z" stroke="black"/>
</g>
</g>
<defs>
<filter id="filter0_d_158_1721" x="782.533" y="-406.016" width="493.162" height="493.162" filterUnits="userSpaceOnUse" color-interpolation-filters="sRGB">
<feFlood flood-opacity="0" result="BackgroundImageFix"/>
<feColorMatrix in="SourceAlpha" type="matrix" values="0 0 0 0 0 0 0 0 0 0 0 0 0 0 0 0 0 0 127 0" result="hardAlpha"/>
<feOffset dy="4"/>
<feGaussianBlur stdDeviation="2"/>
<feComposite in2="hardAlpha" operator="out"/>
<feColorMatrix type="matrix" values="0 0 0 0 0 0 0 0 0 0 0 0 0 0 0 0 0 0 0.25 0"/>
<feBlend mode="normal" in2="BackgroundImageFix" result="effect1_dropShadow_158_1721"/>
<feBlend mode="normal" in="SourceGraphic" in2="effect1_dropShadow_158_1721" result="shape"/>
</filter>
<filter id="filter1_d_158_1721" x="1850.84" y="-68.6152" width="493.162" height="493.162" filterUnits="userSpaceOnUse" color-interpolation-filters="sRGB">
<feFlood flood-opacity="0" result="BackgroundImageFix"/>
<feColorMatrix in="SourceAlpha" type="matrix" values="0 0 0 0 0 0 0 0 0 0 0 0 0 0 0 0 0 0 127 0" result="hardAlpha"/>
<feOffset dy="4"/>
<feGaussianBlur stdDeviation="2"/>
<feComposite in2="hardAlpha" operator="out"/>
<feColorMatrix type="matrix" values="0 0 0 0 0 0 0 0 0 0 0 0 0 0 0 0 0 0 0.25 0"/>
<feBlend mode="normal" in2="BackgroundImageFix" result="effect1_dropShadow_158_1721"/>
<feBlend mode="normal" in="SourceGraphic" in2="effect1_dropShadow_158_1721" result="shape"/>
</filter>
<filter id="filter2_f_158_1721" x="423" y="-171" width="1075" height="1352" filterUnits="userSpaceOnUse" color-interpolation-filters="sRGB">
<feFlood flood-opacity="0" result="BackgroundImageFix"/>
<feBlend mode="normal" in="SourceGraphic" in2="BackgroundImageFix" result="shape"/>
<feGaussianBlur stdDeviation="125" result="effect1_foregroundBlur_158_1721"/>
</filter>
<clipPath id="clip0_158_1721">
<rect width="1920" height="1024" fill="white"/>
</clipPath>
</defs>
</svg>
