<svg width="32" height="32" viewBox="0 0 40 40" fill="none" xmlns="http://www.w3.org/2000/svg">
<path d="M7.58919 0.0282722C8.36333 -0.0493744 9.58952 0.0406083 9.98711 0.204314C10.7978 0.538107 10.9061 0.643179 12.8548 2.9866C14.8438 5.3785 16.1127 6.90185 16.7267 7.63452C16.9854 7.94323 18.0107 9.17173 19.0059 10.3647C20.0012 11.558 21.0411 12.805 21.3173 13.1356C21.5935 13.466 23.9575 16.2969 26.5694 19.4272C29.1744 22.5492 31.3471 25.105 31.4079 25.1189C31.4574 25.1189 31.5455 25.0724 31.6027 25.0147C31.6961 24.9199 31.7059 24.0014 31.7059 15.9304C31.7059 9.87905 31.6842 6.91922 31.6381 6.82202C31.6005 6.75108 31.5122 6.69301 31.4423 6.69285C31.3319 6.69285 29.7931 8.00403 25.9256 11.396C24.5221 12.6269 24.5117 12.6345 24.2131 12.6345C24.0023 12.6345 23.9062 12.5887 23.7194 12.4001C23.5216 12.2005 23.4917 12.1303 23.5131 11.9168C23.5333 11.7169 24.2408 10.6214 27.0413 6.45848C28.9887 3.56358 30.6801 1.11688 30.8496 0.949105C31.2006 0.601699 31.8346 0.240526 32.3256 0.108481C32.7906 -0.0164351 33.7173 -0.00815413 34.159 0.124106C35.3709 0.48703 36.3134 1.50762 36.5715 2.7366C36.7117 3.41269 36.7137 28.5971 36.5736 29.2668C36.2953 30.5912 35.1813 31.6826 33.8611 31.9241C32.921 32.0961 31.7095 31.9679 31.0361 31.6251C30.3433 31.2726 30.4601 31.401 26.7298 26.922C25.0642 24.9221 21.2807 20.3874 19.9621 18.8106C19.5937 18.37 18.5039 17.063 17.5402 15.9064C16.5766 14.7498 14.972 12.8269 13.9746 11.6335C12.9774 10.4403 11.687 8.89281 11.1069 8.19494C10.527 7.49725 9.99435 6.91633 9.92461 6.90431C9.59057 6.84639 9.6069 6.37628 9.6069 16.0679C9.6069 22.9964 9.62516 25.1106 9.68607 25.1731C9.82243 25.3107 9.96198 25.2624 10.3027 24.9616C11.9475 23.5099 16.5611 19.5373 16.7194 19.4366C16.973 19.2762 17.1951 19.2782 17.4611 19.4418C17.7156 19.5988 17.8581 19.9874 17.7559 20.246C17.7183 20.3397 16.9946 21.4428 16.1465 22.6991C15.2975 23.9566 13.8017 26.1799 12.8225 27.6397C10.623 30.9189 10.608 30.9389 10.0423 31.3397C9.42334 31.7784 8.83403 31.9607 8.05169 31.9574C6.54528 31.9509 5.28137 31.0119 4.82461 29.5595L4.67773 29.0918V2.78661L4.83086 2.36056C5.15691 1.44967 5.75288 0.769414 6.59961 0.342856C6.99569 0.143292 7.24899 0.0624064 7.58919 0.0282722Z" fill="#6200EE"/>
</svg>